<?xml version="1.0" standalone="no"?>
<!DOCTYPE svg PUBLIC "-//W3C//DTD SVG 20010904//EN"
 "http://www.w3.org/TR/2001/REC-SVG-20010904/DTD/svg10.dtd">
<svg version="1.0" xmlns="http://www.w3.org/2000/svg"
 width="245.000000pt" height="300.000000pt" viewBox="0 0 245.000000 300.000000"
 preserveAspectRatio="xMidYMid meet">

<g transform="translate(0.000000,300.000000) scale(0.100000,-0.100000)"
fill="#000000" stroke="none">
<path d="M0 2853 l0 -148 28 -16 c15 -8 144 -83 287 -166 143 -82 304 -175
358 -207 54 -31 101 -56 105 -56 4 0 -160 167 -363 370 -268 268 -376 370
-392 370 -23 0 -23 -1 -23 -147z"/>
<path d="M560 2685 c173 -173 316 -315 318 -315 2 0 -6 16 -18 37 -11 20 -93
161 -181 315 l-161 278 -136 0 -137 0 315 -315z"/>
<path d="M825 2751 c166 -286 188 -324 182 -296 -3 11 -31 117 -63 235 -31
118 -62 235 -68 260 l-12 45 -91 3 -92 3 144 -250z"/>
<path d="M1014 2983 c3 -10 32 -121 66 -248 33 -126 64 -239 70 -250 5 -13 9
78 9 248 l1 267 -76 0 c-67 0 -75 -2 -70 -17z"/>
<path d="M1301 2738 c0 -145 2 -258 4 -253 7 16 135 501 135 508 0 4 -31 7
-70 7 l-70 0 1 -262z"/>
<path d="M1521 2738 c-34 -128 -67 -246 -72 -262 -14 -45 -4 -42 23 6 13 24
77 135 142 246 64 112 116 205 114 207 -6 5 -116 35 -131 35 -10 0 -31 -64
-76 -232z"/>
<path d="M1792 2753 c-38 -65 -97 -167 -132 -228 -34 -60 -71 -126 -83 -145
-11 -19 80 64 202 185 121 121 221 222 221 225 0 6 -96 66 -122 75 -13 5 -31
-19 -86 -112z"/>
<path d="M1895 2479 c-197 -199 -214 -218 -165 -191 182 102 485 281 487 288
1 5 -21 35 -50 67 l-52 58 -220 -222z"/>
<path d="M0 2428 l0 -114 78 -19 c42 -10 198 -51 347 -91 148 -40 271 -72 272
-70 2 2 -139 85 -314 186 -175 100 -333 191 -350 202 l-33 20 0 -114z"/>
<path d="M2025 2294 c-149 -86 -272 -158 -275 -161 -3 -3 4 -4 15 -1 11 3 151
41 310 83 160 43 293 81 297 84 7 7 -59 151 -70 151 -4 0 -129 -70 -277 -156z"/>
<path d="M0 2081 l0 -91 333 1 c310 1 328 2 277 15 -96 26 -574 155 -592 160
-16 5 -18 -4 -18 -85z"/>
<path d="M2175 2096 c-126 -35 -264 -72 -305 -84 l-75 -20 328 -1 328 -1 -6
38 c-19 116 -23 132 -33 131 -4 0 -110 -29 -237 -63z"/>
<path d="M0 1749 c0 -81 2 -90 18 -85 24 7 602 163 627 169 11 2 -130 5 -312
6 l-333 1 0 -91z"/>
<path d="M1805 1835 c6 -2 145 -40 309 -84 215 -58 302 -78 307 -69 4 6 10 32
13 57 4 25 9 58 12 74 l6 27 -329 -1 c-180 0 -323 -2 -318 -4z"/>
<path d="M510 1650 c-96 -27 -250 -68 -342 -92 l-168 -43 0 -113 0 -114 33 19
c17 11 171 100 342 198 171 98 314 182 320 187 14 12 5 10 -185 -42z"/>
<path d="M1775 1682 c33 -21 466 -272 503 -291 20 -11 26 -10 37 6 22 29 64
132 56 137 -3 2 -45 14 -91 26 -47 12 -177 46 -290 76 -113 30 -214 57 -225
60 -13 3 -9 -2 10 -14z"/>
<path d="M655 1504 c-60 -35 -233 -135 -382 -222 l-273 -157 0 -167 c0 -93 1
-168 3 -168 1 0 178 176 392 390 214 215 385 390 380 390 -6 -1 -59 -30 -120
-66z"/>
<path d="M1895 1351 l220 -222 52 58 c29 32 52 61 53 65 0 4 -30 25 -67 46
-133 77 -458 265 -468 270 -5 2 89 -95 210 -217z"/>
<path d="M1577 1450 c12 -19 49 -84 83 -145 165 -290 202 -346 219 -340 25 9
121 69 121 75 0 3 -100 104 -221 225 -122 121 -213 204 -202 185z"/>
<path d="M438 1023 l-438 -438 0 -83 0 -83 142 3 142 3 66 115 c290 502 523
906 527 913 2 4 3 7 1 7 -2 0 -200 -197 -440 -437z"/>
<path d="M989 1362 c-9 -15 -127 -220 -264 -457 -136 -236 -254 -439 -261
-450 -8 -11 -14 -23 -14 -27 0 -5 68 -7 151 -6 l152 3 17 65 c10 36 61 225
113 420 110 407 127 473 124 476 -1 2 -9 -9 -18 -24z"/>
<path d="M1444 1373 c3 -10 29 -103 57 -208 83 -311 81 -305 99 -305 16 0 122
29 128 35 2 2 -50 95 -114 207 -65 111 -128 222 -142 246 -25 44 -37 55 -28
25z"/>
<path d="M1146 1343 c-3 -10 -33 -121 -66 -248 -34 -126 -63 -238 -66 -247 -5
-16 3 -18 70 -18 l76 0 0 265 c0 146 -2 265 -4 265 -3 0 -7 -8 -10 -17z"/>
<path d="M1301 1093 l-1 -263 70 0 c39 0 70 3 70 7 0 7 -128 492 -135 508 -2
6 -4 -108 -4 -252z"/>
<path d="M2310 247 l0 -44 -50 5 c-64 6 -95 -14 -110 -68 -20 -75 42 -152 109
-135 14 4 48 6 74 5 l48 -1 -3 138 -3 138 -32 3 c-33 3 -33 3 -33 -41z m-15
-107 c15 -16 17 -26 9 -48 -18 -51 -84 -37 -84 17 0 50 42 67 75 31z"/>
<path d="M20 140 l0 -130 35 0 c33 0 35 2 35 35 0 35 0 35 45 35 57 0 93 17
111 51 17 34 18 50 2 84 -18 41 -57 55 -148 55 l-80 0 0 -130z m141 70 c21
-12 25 -50 7 -68 -7 -7 -27 -12 -45 -12 -32 0 -33 2 -33 38 0 21 3 42 7 45 10
10 42 8 64 -3z"/>
<path d="M1190 140 l0 -130 35 0 c35 0 35 0 35 45 l0 45 60 0 c57 0 60 1 60
25 0 24 -3 25 -60 25 l-60 0 0 35 0 35 65 0 c63 0 65 1 65 25 l0 25 -100 0
-100 0 0 -130z"/>
<path d="M570 235 c0 -14 -7 -28 -15 -31 -8 -4 -15 -17 -15 -30 0 -15 6 -24
15 -24 11 0 15 -13 15 -54 0 -47 4 -57 26 -75 27 -21 69 -27 90 -13 18 11 -2
52 -26 52 -17 0 -20 6 -20 45 0 38 3 45 20 45 15 0 20 7 20 25 0 18 -5 25 -19
25 -14 0 -21 8 -23 28 -2 22 -8 28 -35 30 -30 3 -33 1 -33 -23z"/>
<path d="M986 209 c-98 -27 -112 -156 -21 -195 44 -18 69 -18 110 1 39 19 59
54 58 102 -2 64 -77 111 -147 92z m62 -61 c17 -17 15 -63 -2 -78 -43 -35 -99
28 -61 70 20 23 45 26 63 8z"/>
<path d="M1743 210 c-43 -7 -73 -34 -73 -65 0 -29 29 -50 83 -59 20 -4 37 -11
37 -17 0 -17 -30 -22 -66 -11 -30 9 -36 8 -45 -9 -14 -28 -5 -37 45 -44 82
-13 146 26 132 80 -6 22 -33 37 -88 49 -16 4 -28 10 -28 16 0 15 36 21 63 11
22 -9 28 -7 37 10 6 10 9 23 6 28 -7 12 -63 17 -103 11z"/>
<path d="M1960 210 c-50 -9 -62 -18 -51 -38 7 -12 23 -17 58 -17 37 0 48 -4
51 -17 3 -15 -4 -18 -46 -18 -79 0 -110 -56 -55 -100 21 -16 35 -20 58 -15 16
3 49 6 73 5 l42 -1 0 79 c0 69 -3 81 -22 99 -27 24 -60 31 -108 23z m70 -128
c0 -15 -24 -32 -47 -32 -22 0 -31 19 -16 33 9 10 63 9 63 -1z"/>
<path d="M325 187 c-38 -32 -45 -101 -15 -139 30 -38 88 -55 140 -39 66 20 47
62 -24 54 -30 -4 -45 -1 -55 11 -12 14 -6 16 63 16 l76 0 0 31 c0 20 -10 40
-29 60 -25 24 -38 29 -80 29 -38 0 -56 -6 -76 -23z m115 -47 c0 -6 -18 -10
-40 -10 -44 0 -53 16 -17 29 23 9 57 -2 57 -19z"/>
<path d="M740 110 l0 -100 35 0 35 0 0 59 c0 60 8 76 45 83 13 2 21 13 23 31
3 23 0 27 -20 27 -13 0 -30 -6 -37 -12 -11 -10 -14 -10 -18 0 -3 6 -18 12 -34
12 l-29 0 0 -100z"/>
<path d="M1447 199 c-13 -7 -15 -15 -8 -27 7 -12 23 -17 58 -17 37 0 48 -4 51
-17 3 -15 -4 -18 -46 -18 -79 0 -110 -56 -56 -99 32 -25 61 -27 92 -5 12 8 22
10 22 5 0 -6 16 -11 35 -11 l35 0 0 53 c0 65 -14 115 -37 133 -21 16 -120 18
-146 3z m106 -116 c12 -11 -14 -33 -39 -33 -23 0 -32 19 -17 33 8 9 48 9 56 0z"/>
</g>
</svg>
