<?xml version="1.0" ?><svg id="Layer_1" style="enable-background:new 0 0 65 65;" version="1.1" viewBox="0 0 65 65" xml:space="preserve" xmlns="http://www.w3.org/2000/svg" xmlns:xlink="http://www.w3.org/1999/xlink"><style type="text/css">
	.st0{fill:#1C1F20;}
</style><g><path class="st0" d="M57,62.8H45c-0.4,0-0.8,0.3-0.8,0.8s0.3,0.8,0.8,0.8h12c0.4,0,0.8-0.3,0.8-0.8S57.4,62.8,57,62.8z"/><path class="st0" d="M62,62.8h-2c-0.4,0-0.8,0.3-0.8,0.8s0.3,0.8,0.8,0.8h2c0.4,0,0.8-0.3,0.8-0.8S62.4,62.8,62,62.8z"/><path class="st0" d="M4,14.3c0.4,0,0.8-0.3,0.8-0.8v-8c0-0.4-0.3-0.8-0.8-0.8S3.3,5.1,3.3,5.5v8C3.3,13.9,3.6,14.3,4,14.3z"/><path class="st0" d="M4,3.3c0.4,0,0.8-0.3,0.8-0.8v-1c0-0.4-0.3-0.8-0.8-0.8S3.3,1.1,3.3,1.5v1C3.3,2.9,3.6,3.3,4,3.3z"/><path class="st0" d="M7,38.3c0.4,0,0.8-0.3,0.8-0.8S7.4,36.8,7,36.8H5.8v-1.3c0-0.4-0.3-0.8-0.8-0.8s-0.8,0.3-0.8,0.8v1.3H3   c-0.4,0-0.8,0.3-0.8,0.8s0.3,0.8,0.8,0.8h1.3v1.3c0,0.4,0.3,0.8,0.8,0.8s0.8-0.3,0.8-0.8v-1.3H7z"/><path class="st0" d="M58.1,4.8h-1.3V3.5c0-0.4-0.3-0.8-0.8-0.8s-0.8,0.3-0.8,0.8v1.3h-1.3c-0.4,0-0.8,0.3-0.8,0.8s0.3,0.8,0.8,0.8   h1.3v1.3c0,0.4,0.3,0.8,0.8,0.8s0.8-0.3,0.8-0.8V6.3h1.3c0.4,0,0.8-0.3,0.8-0.8S58.5,4.8,58.1,4.8z"/><path class="st0" d="M42.3,45.6c4.8,0,8.7-3.9,8.7-8.8c0-1.9,0.8-3.8,2.1-5.1c3.4-3.4,3.4-9,0-12.4c-1.4-1.4-2.1-3.2-2.1-5.1   c0-4.8-3.9-8.8-8.8-8.8c-1.9,0-3.8-0.8-5.1-2.1c-3.4-3.4-9-3.4-12.4,0c-1.4,1.4-3.2,2.1-5.1,2.1c-4.8,0-8.8,3.9-8.8,8.8   c0,1.9-0.8,3.8-2.1,5.1c-1.7,1.7-2.6,3.8-2.6,6.2c0,2.3,0.9,4.5,2.6,6.2c1.4,1.4,2.1,3.2,2.1,5.1c0,4.8,3.9,8.8,8.8,8.8   c1.9,0,3.8,0.8,5.1,2.1c1.7,1.7,3.9,2.6,6.2,2.6c2.2,0,4.5-0.9,6.2-2.6C38.6,46.3,40.4,45.6,42.3,45.6z M25.9,46.6   c-1.7-1.7-3.9-2.6-6.2-2.6c-4,0-7.3-3.3-7.3-7.3c0-2.3-0.9-4.5-2.6-6.2c-1.4-1.4-2.1-3.2-2.1-5.1c0-1.9,0.8-3.8,2.1-5.1   c1.7-1.7,2.6-3.9,2.6-6.2c0-4,3.3-7.3,7.3-7.3c2.3,0,4.5-0.9,6.2-2.6C27.3,3,29.1,2.3,31,2.3c1.9,0,3.7,0.7,5.1,2.1   C37.8,6,40,6.9,42.3,6.9c4,0,7.2,3.3,7.2,7.3c0,2.3,0.9,4.5,2.6,6.2c2.8,2.8,2.8,7.4,0,10.3c-1.7,1.7-2.6,3.9-2.6,6.2   c0,4-3.3,7.3-7.3,7.3c-2.3,0-4.5,0.9-6.2,2.6C33.3,49.5,28.7,49.5,25.9,46.6z"/><path class="st0" d="M48.7,25.5c0-0.4-0.3-0.8-0.8-0.8c-0.4,0-0.8,0.3-0.8,0.8c0,8.9-7.3,16.2-16.3,16.3c-8.9,0-16.2-7.3-16.3-16.3   c0-2.5,0.5-4.8,1.6-7C19,12.9,24.8,9.3,31,9.3c6.8,0,13,4.3,15.3,10.8c0.1,0.4,0.6,0.6,1,0.5c0.2-0.1,0.3-0.2,0.4-0.4   c0.1-0.2,0.1-0.4,0-0.6c-2.5-7-9.2-11.8-16.7-11.8c-3.4,0-6.7,1-9.6,2.8c-2.8,1.8-5,4.3-6.4,7.3c-1.1,2.4-1.7,5-1.7,7.7   c0,9.8,8,17.8,17.8,17.8S48.7,35.3,48.7,25.5z"/><path class="st0" d="M47.1,22.2C47,22.4,47,22.6,47,22.8c0.1,0.4,0.4,0.6,0.7,0.6c0,0,0.1,0,0.1,0c0.2,0,0.4-0.1,0.5-0.3   c0.1-0.2,0.2-0.4,0.1-0.6c-0.1-0.4-0.5-0.7-0.9-0.6C47.4,22,47.3,22.1,47.1,22.2z"/><path class="st0" d="M43.1,21.6c-0.1-0.3-0.3-0.5-0.6-0.5L35,20l-3.3-6.8c-0.3-0.5-1.1-0.5-1.3,0L27,20l-7.4,1.1   c-0.3,0-0.5,0.2-0.6,0.5c-0.1,0.3,0,0.6,0.2,0.8l5.4,5.3L23.2,35c0,0.3,0.1,0.6,0.3,0.7c0.2,0.2,0.5,0.2,0.8,0.1l6.7-3.5l6.7,3.5   c0.1,0.1,0.2,0.1,0.3,0.1c0.2,0,0.3,0,0.4-0.1c0.2-0.2,0.3-0.5,0.3-0.7l-1.3-7.4l5.4-5.3C43.1,22.2,43.1,21.9,43.1,21.6z    M36.1,26.8c-0.2,0.2-0.3,0.4-0.2,0.7l1.1,6.3l-5.7-3c-0.1-0.1-0.2-0.1-0.3-0.1s-0.2,0-0.3,0.1l-5.7,3l1.1-6.3c0-0.2,0-0.5-0.2-0.7   l-4.6-4.5l6.3-0.9c0.2,0,0.5-0.2,0.6-0.4l2.8-5.7l2.8,5.7c0.1,0.2,0.3,0.4,0.6,0.4l6.3,0.9L36.1,26.8z"/><path class="st0" d="M26,51.6c-0.4-0.2-0.8,0-1,0.4l-4.5,9.6l-2.8-7.8c-0.1-0.2-0.2-0.3-0.4-0.4c-0.2-0.1-0.4-0.1-0.6,0l-7.8,2.8   l4.3-9.3c0.2-0.4,0-0.8-0.4-1c-0.4-0.2-0.8,0-1,0.4l-5.1,11c-0.1,0.3-0.1,0.6,0.1,0.8c0.2,0.2,0.5,0.3,0.8,0.2l8.8-3.2l3.2,8.8   c0.1,0.3,0.4,0.5,0.7,0.5c0,0,0,0,0,0c0.3,0,0.6-0.2,0.7-0.4l5.2-11.2C26.6,52.2,26.4,51.8,26,51.6z"/><path class="st0" d="M53.6,58c0.2-0.2,0.3-0.5,0.1-0.8l-4.8-10.2c-0.2-0.4-0.6-0.5-1-0.4c-0.4,0.2-0.5,0.6-0.4,1l4,8.6l-7.8-2.8   c-0.2-0.1-0.4-0.1-0.6,0c-0.2,0.1-0.3,0.2-0.4,0.4L40,61.5l-4.2-9.1c-0.2-0.4-0.6-0.5-1-0.4c-0.4,0.2-0.5,0.6-0.4,1l5,10.7   c0.1,0.3,0.4,0.4,0.7,0.4c0,0,0,0,0,0c0.3,0,0.6-0.2,0.7-0.5l3.2-8.8l8.8,3.2C53.1,58.3,53.4,58.2,53.6,58z"/></g></svg>