<?xml version="1.0" encoding="utf-8"?>
<!-- Generator: Adobe Illustrator 19.0.0, SVG Export Plug-In . SVG Version: 6.00 Build 0)  -->
<svg version="1.1" xmlns="http://www.w3.org/2000/svg" xmlns:xlink="http://www.w3.org/1999/xlink" x="0px" y="0px"
	 viewBox="0 0 64 64" style="enable-background:new 0 0 64 64;" xml:space="preserve">
<style type="text/css">
	.st0{display:none;}
	.st1{display:inline;fill:#FFFFFF;}
	.st2{display:inline;}
	.st3{fill:none;stroke:#4C5159;stroke-width:2;stroke-miterlimit:10;}
	.st4{display:inline;fill:none;stroke:#4C5159;stroke-width:2;stroke-miterlimit:10;}
	.st5{fill:none;stroke:#4C5159;stroke-width:2;stroke-miterlimit:10;stroke-dasharray:1.9857,1.9857;}
	.st6{display:inline;fill:none;stroke:#4C5159;stroke-width:2;stroke-miterlimit:10;stroke-dasharray:1.9857,1.9857;}
	.st7{fill:none;stroke:#4C5159;stroke-width:2;stroke-linecap:round;stroke-miterlimit:10;}
	.st8{fill:#4C5159;}
	.st9{font-family:'Montserrat-Bold';}
	.st10{font-size:7px;}
	.st11{display:inline;fill:#74E2F0;}
	.st12{display:inline;fill:#FBDA73;}
	.st13{display:inline;fill:#F08E70;}
</style>
<g id="bg" class="st0">
	<rect id="XMLID_119_" x="-218" y="-268.2" class="st1" width="500" height="600.3"/>
</g>
<g id="guideline" class="st0">
</g>
<g id="icons">
	<g id="XMLID_15_" class="st0">
		<g id="XMLID_189_" class="st2">
			<path id="XMLID_183_" class="st3" d="M27.9,26.9c0,0,3,2.9,0,7c-1.6,2.2-5,5.6-2.2,10.5"/>
			<path id="XMLID_188_" class="st3" d="M35.6,26.9c0,0-3,2.9,0,7c1.6,2.2,5,5.6,2.2,10.5"/>
			<path id="XMLID_182_" class="st3" d="M40.6,47.3H22.9v-1.1c0-1,0.8-1.9,1.9-1.9h13.9c1,0,1.9,0.8,1.9,1.9V47.3z"/>
			<path id="XMLID_187_" class="st3" d="M37.5,26.9H26.1c-0.1,0-0.2-0.1-0.2-0.2v-2.1c0-0.1,0.1-0.2,0.2-0.2h11.4
				c0.1,0,0.2,0.1,0.2,0.2v2.1C37.8,26.8,37.7,26.9,37.5,26.9z"/>
			<path id="XMLID_190_" class="st3" d="M29,24.3c-1.8,0-3.3-1.6-3.1-3.5c0.2-1.3,1.2-2.4,2.5-2.6c0.8-0.1,1.5,0,2.1,0.4
				c0,0,0,0,0,0v-2.8h-2.3c0,0-0.1,0-0.1-0.1v-2.8c0,0,0-0.1,0.1-0.1h2.3V9.8c0,0,0-0.1,0.1-0.1H33c0,0,0.1,0,0.1,0.1v2.9h2.3
				c0,0,0.1,0,0.1,0.1v2.8c0,0,0,0.1-0.1,0.1h-2.3v2.8c0,0,0,0,0,0c0.6-0.4,1.3-0.5,2.1-0.4c1.3,0.2,2.4,1.3,2.5,2.6
				c0.2,1.9-1.2,3.5-3.1,3.5"/>
		</g>
		<path id="XMLID_797_" class="st4" d="M51.4,54.2H12.6c-0.5,0-0.9-0.4-1-0.8l-0.4-2.3h17.2l0.7,0.9h4.8l0.7-0.9h18.2l-0.4,2.3
			C52.3,53.9,51.9,54.2,51.4,54.2z"/>
		<path id="XMLID_323_" class="st4" d="M23.1,26.8h-10c-0.1,0-0.2,0.1-0.2,0.2v24.1"/>
		<path id="XMLID_322_" class="st4" d="M51.1,51.1V27c0-0.1-0.1-0.2-0.2-0.2h-10"/>
		<line id="XMLID_324_" class="st4" x1="16.7" y1="47.3" x2="46.8" y2="47.3"/>
		<line id="XMLID_7_" class="st4" x1="21" y1="20.7" x2="22.9" y2="20.7"/>
		<line id="XMLID_2_" class="st4" x1="17" y1="20.7" x2="18.9" y2="20.7"/>
		<line id="XMLID_8_" class="st4" x1="13" y1="20.7" x2="14.9" y2="20.7"/>
		<line id="XMLID_14_" class="st4" x1="49" y1="20.7" x2="50.9" y2="20.7"/>
		<line id="XMLID_13_" class="st4" x1="45" y1="20.7" x2="46.9" y2="20.7"/>
		<line id="XMLID_9_" class="st4" x1="41" y1="20.7" x2="42.9" y2="20.7"/>
	</g>
	<g id="XMLID_25_">
		<path id="XMLID_62_" class="st3" d="M17.7,35.7c0.4,1.8,1.1,3.5,2.1,5l-2.7,4.1l3.7,3.7l4.4-2.4c1.5,0.9,3.2,1.6,5,2.1l1.2,5.1
			l5.3,0l1.2-5.1c1.8-0.4,3.5-1.1,5-2.1l4.4,2.6L51,45l-2.7-4.3c0.9-1.5,1.6-3.2,2.1-5l4.4-1.2l0-5.3L50.4,28
			c-0.4-1.8-1.1-3.5-2.1-5l2.6-4.3L47.2,15l-4.4,2.6c-1.5-0.9-3.2-1.6-5-2.1l-1.2-4.8h-5.3l-1.2,4.8c-1.8,0.4-3.4,1.1-4.9,2
			l-4.2-2.5l-3.7,3.7l2.5,4.2c-0.9,1.5-1.7,3.2-2.1,5"/>
		<path id="XMLID_538_" class="st3" d="M23.6,27.5c0.6-1.4,1.4-2.6,2.4-3.6s2.2-1.8,3.6-2.4c1.4-0.6,2.8-0.9,4.4-0.9
			c1.6,0,3,0.3,4.4,0.9c1.4,0.6,2.6,1.4,3.6,2.4c1,1,1.8,2.2,2.4,3.6c0.6,1.4,0.9,2.8,0.9,4.4c0,1.6-0.3,3-0.9,4.4
			c-0.6,1.4-1.4,2.6-2.4,3.6c-1,1-2.2,1.8-3.6,2.4c-1.4,0.6-2.8,0.9-4.4,0.9c-1.6,0-3-0.3-4.4-0.9c-1.4-0.6-2.6-1.4-3.6-2.4
			s-1.8-2.2-2.4-3.6"/>
		<path id="XMLID_541_" class="st5" d="M27.7,29.2c0.3-0.8,0.8-1.6,1.5-2.2c0.6-0.6,1.4-1.1,2.2-1.5c0.8-0.3,1.7-0.5,2.7-0.5
			c0.9,0,1.8,0.2,2.7,0.5c0.8,0.3,1.6,0.8,2.2,1.5s1.1,1.4,1.5,2.2c0.3,0.8,0.5,1.7,0.5,2.7c0,0.9-0.2,1.8-0.5,2.7
			c-0.3,0.8-0.8,1.6-1.5,2.2c-0.6,0.6-1.4,1.1-2.2,1.5c-0.8,0.3-1.7,0.5-2.7,0.5c-0.9,0-1.8-0.2-2.7-0.5c-0.8-0.3-1.6-0.8-2.2-1.5
			c-0.6-0.6-1.1-1.4-1.5-2.2"/>
		<line id="XMLID_553_" class="st3" x1="34.3" y1="31.9" x2="16.5" y2="31.9"/>
		<polyline id="XMLID_64_" class="st3" points="13.9,28.8 17.1,32 13.9,35.2 		"/>
		<polyline id="XMLID_554_" class="st3" points="9.2,28.8 12.3,32 9.2,35.2 		"/>
	</g>
	<g id="XMLID_97_" class="st0">
		<g id="XMLID_176_" class="st2">
			<path id="XMLID_17_" class="st3" d="M17.6,31.6l0-1.7l3.1-1c0.3-1.2,0.8-2.4,1.4-3.5l-1.7-2.9l2.6-2.6l2.9,1.7
				c1-0.6,2.2-1.1,3.4-1.4l0.8-3.3h3.7l0.8,3.3c1.2,0.3,2.4,0.8,3.5,1.4l3-1.8l2.6,2.6l-1.8,3c0.7,1.1,1.1,2.2,1.4,3.5l3.1,0.8
				l0,1.8"/>
		</g>
		<g id="XMLID_65_" class="st2">
			<path id="XMLID_78_" class="st3" d="M46.4,33.4l0,1.7l-3.1,1c-0.3,1.2-0.8,2.4-1.4,3.5l1.7,2.9L41,45.1l-2.9-1.7
				c-1,0.6-2.2,1.1-3.4,1.4l-0.8,3.3h-3.7l-0.8-3.3c-1.2-0.3-2.4-0.8-3.5-1.4l-3,1.8l-2.6-2.6l1.8-3c-0.7-1.1-1.1-2.2-1.4-3.5
				l-3.1-0.8l0-1.8"/>
		</g>
		<line id="XMLID_66_" class="st4" x1="25.9" y1="32.5" x2="27.6" y2="32.5"/>
		<line id="XMLID_75_" class="st4" x1="29.5" y1="32.5" x2="31.2" y2="32.5"/>
		<line id="XMLID_79_" class="st4" x1="33" y1="32.5" x2="34.8" y2="32.5"/>
		<line id="XMLID_80_" class="st4" x1="36.6" y1="32.5" x2="38.3" y2="32.5"/>
		<circle id="XMLID_82_" class="st6" cx="32" cy="32" r="22.2"/>
		<path id="XMLID_98_" class="st4" d="M39.6,35.7c-0.4,1-1,1.9-1.8,2.6c-0.7,0.7-1.6,1.4-2.6,1.8c-1,0.4-2.1,0.6-3.2,0.6
			c-1.1,0-2.2-0.2-3.2-0.6c-1-0.4-1.9-1-2.6-1.8c-0.7-0.7-1.4-1.6-1.8-2.6"/>
		<path id="XMLID_21_" class="st4" d="M24.4,29.3c0.4-1,1-1.9,1.8-2.6c0.7-0.7,1.6-1.4,2.6-1.8c1-0.4,2.1-0.6,3.2-0.6
			c1.1,0,2.2,0.2,3.2,0.6c1,0.4,1.9,1,2.6,1.8c0.7,0.7,1.4,1.6,1.8,2.6"/>
	</g>
	<g id="XMLID_95_" class="st0">
		<path id="XMLID_88_" class="st4" d="M22.2,32.1v-8.5c0-0.1,0.1-0.3,0.3-0.3h9.8"/>
		<path id="XMLID_55_" class="st4" d="M42.2,31.5v7.9c0,0.1-0.1,0.3-0.3,0.3H31.1"/>
		<path id="XMLID_423_" class="st4" d="M35.7,31.7l-6.8,3.9c-0.1,0.1-0.3,0-0.3-0.2v-7.9c0-0.1,0.2-0.2,0.3-0.2l6.8,3.9
			C35.8,31.4,35.8,31.6,35.7,31.7l-6.8,3.9c-0.1,0.1-0.3,0-0.3-0.2v-7.9c0-0.1,0.2-0.2,0.3-0.2l6.8,3.9
			C35.8,31.4,35.8,31.6,35.7,31.7z"/>
		<path id="XMLID_350_" class="st4" d="M35.3,10v14.6c0,0.2,0.1,0.3,0.3,0.3H39v2.6v3.4c0,0.3,0.3,0.4,0.5,0.2l6.3-6.1h9.7
			c0.2,0,0.3-0.1,0.3-0.3V10c0-0.2-0.1-0.3-0.3-0.3H35.6C35.5,9.8,35.3,9.9,35.3,10z"/>
		<line id="XMLID_280_" class="st4" x1="16.8" y1="17.1" x2="19.2" y2="17.1"/>
		<line id="XMLID_279_" class="st4" x1="22.2" y1="17.1" x2="24.7" y2="17.1"/>
		<line id="XMLID_283_" class="st4" x1="27.7" y1="17.1" x2="30.2" y2="17.1"/>
		<path id="XMLID_89_" class="st4" d="M28.7,54V39.4c0-0.2-0.1-0.3-0.3-0.3H25v-2.6v-3.4c0-0.3-0.3-0.4-0.5-0.2l-6.3,6.1H8.5
			c-0.2,0-0.3,0.1-0.3,0.3V54c0,0.2,0.1,0.3,0.3,0.3h19.9C28.5,54.2,28.7,54.1,28.7,54z"/>
		<line id="XMLID_87_" class="st4" x1="47.2" y1="46.9" x2="44.8" y2="46.9"/>
		<line id="XMLID_86_" class="st4" x1="41.8" y1="46.9" x2="39.3" y2="46.9"/>
		<line id="XMLID_85_" class="st4" x1="36.3" y1="46.9" x2="33.8" y2="46.9"/>
		<line id="XMLID_83_" class="st4" x1="39.3" y1="13.6" x2="52.7" y2="13.6"/>
		<line id="XMLID_52_" class="st4" x1="39.3" y1="17.6" x2="52.7" y2="17.6"/>
		<line id="XMLID_90_" class="st4" x1="39.3" y1="21.6" x2="46" y2="21.6"/>
		<line id="XMLID_94_" class="st4" x1="11.7" y1="43" x2="25.1" y2="43"/>
		<line id="XMLID_92_" class="st4" x1="11.7" y1="46.9" x2="25.1" y2="46.9"/>
		<line id="XMLID_91_" class="st4" x1="11.7" y1="50.9" x2="19.2" y2="50.9"/>
	</g>
	<g id="XMLID_127_" class="st0">
		<path id="XMLID_106_" class="st4" d="M22.1,44.2v-4.6c0-0.3,0.1-0.5,0.3-0.7l5.5-6.6v-0.7L22.4,25c-0.2-0.2-0.3-0.4-0.3-0.7v-4.6"
			/>
		<path id="XMLID_103_" class="st4" d="M41.4,44.2v-4.6c0-0.3-0.1-0.5-0.3-0.7l-5.5-6.6v-0.7l5.5-6.6c0.2-0.2,0.3-0.4,0.3-0.7v-4.6"
			/>
		<path id="XMLID_101_" class="st4" d="M38.5,48.5h8.7c0.1,0,0.2,0.1,0.2,0.2v4c0,0.1-0.1,0.2-0.2,0.2H16.8c-0.1,0-0.2-0.1-0.2-0.2
			v-4c0-0.1,0.1-0.2,0.2-0.2h13.3"/>
		<path id="XMLID_128_" class="st4" d="M24.4,15.5h-7.6c-0.1,0-0.2-0.1-0.2-0.2v-4c0-0.1,0.1-0.2,0.2-0.2h30.4
			c0.1,0,0.2,0.1,0.2,0.2v4c0,0.1-0.1,0.2-0.2,0.2H33.8"/>
		<circle id="XMLID_109_" class="st4" cx="18.5" cy="31.5" r="1.6"/>
		<line id="XMLID_111_" class="st4" x1="18.5" y1="15.9" x2="18.5" y2="29.9"/>
		<line id="XMLID_117_" class="st4" x1="45.7" y1="15.9" x2="45.7" y2="29.9"/>
		<line id="XMLID_110_" class="st4" x1="18.5" y1="33.8" x2="18.5" y2="47.9"/>
		<circle id="XMLID_115_" class="st4" cx="45.7" cy="31.5" r="1.6"/>
		<line id="XMLID_112_" class="st4" x1="45.7" y1="33.8" x2="45.7" y2="47.9"/>
		<line id="XMLID_122_" class="st4" x1="32" y1="24.3" x2="32" y2="26"/>
		<line id="XMLID_120_" class="st4" x1="32" y1="27.7" x2="32" y2="29.4"/>
		<line id="XMLID_123_" class="st4" x1="32" y1="31.1" x2="32" y2="32.8"/>
		<line id="XMLID_125_" class="st4" x1="32" y1="34.5" x2="32" y2="36.2"/>
		<line id="XMLID_126_" class="st4" x1="32" y1="37.9" x2="32" y2="39.6"/>
		<path id="XMLID_129_" class="st4" d="M20.8,15.5V18c0,0.1,0.1,0.2,0.2,0.2h22.3c0.1,0,0.2-0.1,0.2-0.2v-2.5"/>
		<path id="XMLID_130_" class="st4" d="M20.8,48.5V46c0-0.1,0.1-0.2,0.2-0.2h22.3c0.1,0,0.2,0.1,0.2,0.2v2.5"/>
	</g>
	<g id="XMLID_156_" class="st0">
		<path id="XMLID_161_" class="st4" d="M48.8,27.3H52c1.2,0,2.2,1,2.2,2.2v21.9c0,1.2-1,2.2-2.2,2.2H12c-1.2,0-2.2-1-2.2-2.2V29.5
			c0-1.2,1-2.2,2.2-2.2h9.4"/>
		<line id="XMLID_160_" class="st4" x1="16.5" y1="53.6" x2="16.5" y2="27.3"/>
		<line id="XMLID_158_" class="st4" x1="13.3" y1="44.7" x2="13.3" y2="36.2"/>
		<line id="XMLID_157_" class="st4" x1="47.5" y1="53.6" x2="47.5" y2="29.3"/>
		<g id="XMLID_133_" class="st2">
			<path id="XMLID_154_" class="st3" d="M37,31.4l-8.5,8.5c-0.1,0.1-0.2,0.1-0.2,0l-7.7-7.7c-0.1-0.1-0.1-0.2,0-0.2l8.5-8.5
				c0.1-0.1,0.2-0.1,0.2,0l7.7,7.7C37.1,31.2,37.1,31.3,37,31.4z"/>
			<line id="XMLID_141_" class="st3" x1="29.8" y1="32.8" x2="34.1" y2="28.5"/>
			<line id="XMLID_140_" class="st3" x1="28.8" y1="33.8" x2="27.6" y2="35"/>
			<polyline id="XMLID_139_" class="st3" points="26.5,38.5 24.4,40.6 19.9,36.1 22,34 			"/>
			<path id="XMLID_138_" class="st3" d="M29.3,23.3L37,10.4c0.1-0.1,0.2-0.1,0.2,0l12.9,12.9c0.1,0.1,0.1,0.2,0,0.2l-12.9,7.7"/>
			<path id="XMLID_137_" class="st3" d="M38.4,44.6L38.4,44.6c-0.2,0.2-0.3,0.2-0.4,0.1l-7.1-7.1l3-3l4.5,4.5
				C40,40.5,40,43,38.4,44.6z"/>
			<path id="XMLID_134_" class="st3" d="M36,32.4l0.9,0.9c1.2,1.2,1.2,3,0,4.2l0,0"/>
			<path id="XMLID_458_" class="st3" d="M41.8,15c1-1,2.7-1,3.7,0c1,1,1,2.7,0,3.7"/>
		</g>
		<line id="XMLID_124_" class="st4" x1="23" y1="48.2" x2="25" y2="48.2"/>
		<line id="XMLID_121_" class="st4" x1="27" y1="48.2" x2="29" y2="48.2"/>
		<line id="XMLID_131_" class="st4" x1="31" y1="48.2" x2="33" y2="48.2"/>
		<line id="XMLID_132_" class="st4" x1="35" y1="48.2" x2="37" y2="48.2"/>
		<line id="XMLID_152_" class="st4" x1="39" y1="48.2" x2="41" y2="48.2"/>
	</g>
	<g id="XMLID_177_" class="st0">
		<path id="XMLID_174_" class="st4" d="M22.6,19.2c-1.5,2.3-2.4,5-2.4,7.9l-4.6,8.5c-0.1,0.1,0,0.3,0.2,0.3l4.1,0.1v9.7
			c0,0.8,0.7,1.5,1.5,1.5h11"/>
		<path id="XMLID_171_" class="st4" d="M44.3,54.8l0-17.7c2.6-2.6,4.2-6.1,4.2-10c0-2.8-0.8-5.4-2.2-7.6"/>
		<line id="XMLID_522_" class="st4" x1="28.8" y1="47.9" x2="28.8" y2="54.8"/>
		<g id="XMLID_166_" class="st2">
			<g id="XMLID_149_">
				<polygon id="XMLID_170_" class="st3" points="40.2,35.7 28.4,35.7 27.6,34 27.6,29 41,29 41,34 				"/>
				<path id="XMLID_153_" class="st3" d="M36.2,36.3v1.9c0,0.1-0.1,0.3-0.3,0.3h-3.3c-0.1,0-0.3-0.1-0.3-0.3v-1.9"/>
				<path id="XMLID_168_" class="st3" d="M43.8,18.6c0-5.2-4.2-9.5-9.5-9.5s-9.5,4.2-9.5,9.5c0,3.3,1.7,6.3,4.3,8V29h10.3v-2.4
					C42.1,24.9,43.8,22,43.8,18.6z"/>
				<line id="XMLID_167_" class="st3" x1="27.6" y1="32.3" x2="33.4" y2="32.3"/>
			</g>
			<g id="XMLID_169_">
				<line id="XMLID_164_" class="st5" x1="29.4" y1="17.5" x2="31.2" y2="17.5"/>
				<line id="XMLID_163_" class="st5" x1="33.5" y1="17.5" x2="35.2" y2="17.5"/>
				<line id="XMLID_165_" class="st5" x1="37.5" y1="17.5" x2="39.3" y2="17.5"/>
			</g>
		</g>
	</g>
	<g id="XMLID_209_" class="st0">
		<g id="XMLID_196_" class="st2">
			<path id="XMLID_267_" class="st3" d="M47.6,32.6H16.3l-4-17.9c0-0.2,0.1-0.3,0.3-0.2l9.9,6.5l9.3-6.7c0.1,0,0.1,0,0.2,0l8.4,6.7
				l10.8-6.6c0.1-0.1,0.3,0,0.3,0.2L47.6,32.6z"/>
			<polyline id="XMLID_181_" class="st3" points="47.8,35.4 47.8,40.2 16.3,40.2 16.3,35.4 			"/>
			<circle id="XMLID_185_" class="st3" cx="32" cy="12.2" r="2"/>
			<circle id="XMLID_184_" class="st3" cx="52" cy="12.2" r="2"/>
			<circle id="XMLID_195_" class="st3" cx="12" cy="12.2" r="2"/>
			<line id="XMLID_191_" class="st3" x1="22.9" y1="36.3" x2="24.5" y2="36.3"/>
			<line id="XMLID_186_" class="st3" x1="26.9" y1="36.3" x2="28.5" y2="36.3"/>
			<line id="XMLID_192_" class="st3" x1="30.9" y1="36.3" x2="32.5" y2="36.3"/>
			<line id="XMLID_193_" class="st3" x1="34.9" y1="36.3" x2="36.5" y2="36.3"/>
			<line id="XMLID_194_" class="st3" x1="38.9" y1="36.3" x2="40.5" y2="36.3"/>
			
				<rect id="XMLID_180_" x="29.8" y="23.5" transform="matrix(0.7071 -0.7071 0.7071 0.7071 -8.7916 30.082)" class="st3" width="4.2" height="4.2"/>
		</g>
		<g id="XMLID_198_" class="st2">
			<path id="XMLID_206_" class="st3" d="M21.4,53.9H9.5c-0.1,0-0.2-0.1-0.2-0.2V44c0-0.1,0.1-0.2,0.2-0.2h11.9
				c0.1,0,0.2,0.1,0.2,0.2v9.6C21.6,53.8,21.5,53.9,21.4,53.9z"/>
			<path id="XMLID_203_" class="st3" d="M17.8,48.9l-4.6,2.7c-0.1,0-0.2,0-0.2-0.1v-5.3c0-0.1,0.1-0.2,0.2-0.1l4.6,2.7
				C17.9,48.8,17.9,48.9,17.8,48.9l-4.6,2.7c-0.1,0-0.2,0-0.2-0.1v-5.3c0-0.1,0.1-0.2,0.2-0.1l4.6,2.7
				C17.9,48.8,17.9,48.9,17.8,48.9z"/>
		</g>
		<g id="XMLID_207_" class="st2">
			<path id="XMLID_205_" class="st3" d="M38,53.9H26c-0.1,0-0.2-0.1-0.2-0.2V44c0-0.1,0.1-0.2,0.2-0.2H38c0.1,0,0.2,0.1,0.2,0.2v9.6
				C38.2,53.8,38.1,53.9,38,53.9z"/>
			<polyline id="XMLID_202_" class="st3" points="25.8,51.3 29.6,51.3 31.6,49.2 33.8,51.1 38.2,51.1 			"/>
			<line id="XMLID_201_" class="st3" x1="33.6" y1="46.6" x2="35.8" y2="46.6"/>
		</g>
		<g id="XMLID_208_" class="st2">
			<path id="XMLID_204_" class="st3" d="M54.5,53.9H42.6c-0.1,0-0.2-0.1-0.2-0.2V44c0-0.1,0.1-0.2,0.2-0.2h11.9
				c0.1,0,0.2,0.1,0.2,0.2v9.6C54.8,53.8,54.6,53.9,54.5,53.9z"/>
			<polyline id="XMLID_199_" class="st3" points="44.4,50.6 46.4,50.6 46.4,47.1 50.7,47.1 50.7,50.6 48.6,50.6 			"/>
		</g>
	</g>
	<g id="XMLID_105_" class="st0">
		<polygon id="XMLID_145_" class="st4" points="40.3,52.1 23.7,52.1 22.6,49.7 22.6,42.6 41.4,42.6 41.4,49.6 		"/>
		<rect id="XMLID_144_" x="29.4" y="52.1" class="st4" width="5.3" height="3"/>
		<path id="XMLID_143_" class="st4" d="M45.3,28.1c0-7.3-5.9-13.3-13.3-13.3s-13.3,5.9-13.3,13.3c0,4.7,2.4,8.8,6.1,11.1v3.3h14.4
			v-3.3C42.9,36.9,45.3,32.8,45.3,28.1z"/>
		<line id="XMLID_142_" class="st4" x1="22.6" y1="47.3" x2="30.8" y2="47.3"/>
		<g id="XMLID_135_" class="st2">
			<path id="XMLID_136_" class="st5" d="M15.5,39.7c-2.1-3.1-3.3-6.9-3.3-11C12.2,17.8,21.1,9,32,9s19.8,8.9,19.8,19.8
				c0,4.4-1.5,8.5-3.9,11.8"/>
		</g>
		<path id="XMLID_509_" class="st4" d="M37.2,28.9l-7.9,4.6c-0.1,0.1-0.3,0-0.3-0.2v-9.2c0-0.2,0.2-0.3,0.3-0.2l7.9,4.6
			C37.3,28.6,37.3,28.8,37.2,28.9l-7.9,4.6c-0.1,0.1-0.3,0-0.3-0.2v-9.2c0-0.2,0.2-0.3,0.3-0.2l7.9,4.6
			C37.3,28.6,37.3,28.8,37.2,28.9z"/>
	</g>
	<g id="XMLID_226_" class="st0">
		<path id="XMLID_417_" class="st4" d="M9.3,49.9h8.6c0,0,0.1,0,0.1-0.1V31.9c0,0,0-0.1-0.1-0.1H9.3"/>
		<path id="XMLID_228_" class="st4" d="M18,34.8l11.2,0c0.7,0.1,1.6,0.5,2.1,1l7.3,6.8c2.1,1.6-0.1,5.1-2.1,3.3L29,40.5l0,2.6l7,6.6
			c0,0,4.2,0.4,4.8,0.5l7.8-3.1c1.3-0.5,2.8-0.6,4.1-0.1c1,0.4,1.9,0.8,2.1,1.3l-13.4,5.4c-0.5,0.2-7.7,0.2-7.7,0.2L18,46.3"/>
		<path id="XMLID_212_" class="st4" d="M29.6,33v-6c0-0.1-0.1-0.2-0.2-0.2h-6.6c-0.1,0-0.2,0.1-0.2,0.2v6"/>
		<path id="XMLID_197_" class="st4" d="M40.2,41V18.3c0-0.1-0.1-0.2-0.2-0.2h-6.6c-0.1,0-0.2,0.1-0.2,0.2V34"/>
		<path id="XMLID_200_" class="st4" d="M50.9,44V10.3c0-0.1-0.1-0.2-0.2-0.2h-6.6c-0.1,0-0.2,0.1-0.2,0.2V46"/>
		<line id="XMLID_213_" class="st4" x1="35.3" y1="12.7" x2="37.5" y2="12.7"/>
		<line id="XMLID_211_" class="st4" x1="31.3" y1="12.7" x2="33.5" y2="12.7"/>
		<line id="XMLID_214_" class="st4" x1="27.3" y1="12.7" x2="29.5" y2="12.7"/>
		<line id="XMLID_215_" class="st4" x1="23.3" y1="12.7" x2="25.5" y2="12.7"/>
		<line id="XMLID_216_" class="st4" x1="19.3" y1="12.7" x2="21.5" y2="12.7"/>
		<line id="XMLID_224_" class="st4" x1="25.3" y1="20.7" x2="27.5" y2="20.7"/>
		<line id="XMLID_222_" class="st4" x1="21.3" y1="20.7" x2="23.5" y2="20.7"/>
		<line id="XMLID_219_" class="st4" x1="17.3" y1="20.7" x2="19.5" y2="20.7"/>
		<line id="XMLID_218_" class="st4" x1="13.3" y1="20.7" x2="15.5" y2="20.7"/>
		<line id="XMLID_217_" class="st4" x1="9.3" y1="20.7" x2="11.5" y2="20.7"/>
	</g>
	<g id="XMLID_229_" class="st0">
		<path id="XMLID_276_" class="st4" d="M19,27V11.4c0-1.2,1-2.2,2.2-2.2h21.5c1.2,0,2.2,1,2.2,2.2V27"/>
		<path id="XMLID_220_" class="st4" d="M44.8,36.3v16.4c0,1.2-1,2.2-2.2,2.2H21.2c-1.2,0-2.2-1-2.2-2.2V36.3"/>
		<line id="XMLID_289_" class="st4" x1="19" y1="15.8" x2="44.8" y2="15.8"/>
		<line id="XMLID_288_" class="st4" x1="27.8" y1="12.6" x2="36" y2="12.6"/>
		<line id="XMLID_287_" class="st4" x1="19" y1="48.3" x2="44.8" y2="48.3"/>
		<g id="XMLID_223_" class="st2">
			<path id="XMLID_275_" class="st7" d="M16.4,30.1c-0.1,0.6-0.2,1.3-0.2,1.9c0,0.7,0.1,1.3,0.2,1.9"/>
			<path id="XMLID_273_" class="st7" d="M14.1,27c-0.3,0.8-0.6,1.6-0.7,2.4c-0.2,0.8-0.3,1.7-0.3,2.6c0,0.9,0.1,1.7,0.3,2.6
				c0.2,0.8,0.4,1.6,0.7,2.4"/>
			<path id="XMLID_272_" class="st7" d="M12.6,23c-0.6,0.9-1.1,1.8-1.5,2.7c-0.4,1-0.7,2-0.9,3c-0.2,1-0.3,2.1-0.3,3.2
				c0,1.1,0.1,2.2,0.3,3.2c0.2,1,0.5,2.1,0.9,3c0.4,1,0.9,1.9,1.5,2.7"/>
		</g>
		<g id="XMLID_230_" class="st2">
			<path id="XMLID_233_" class="st7" d="M47.6,30.1c0.1,0.6,0.2,1.3,0.2,1.9c0,0.7-0.1,1.3-0.2,1.9"/>
			<path id="XMLID_232_" class="st7" d="M49.9,27c0.3,0.8,0.6,1.6,0.7,2.4c0.2,0.8,0.3,1.7,0.3,2.6c0,0.9-0.1,1.7-0.3,2.6
				c-0.2,0.8-0.4,1.6-0.7,2.4"/>
			<path id="XMLID_231_" class="st7" d="M51.4,23c0.6,0.9,1.1,1.8,1.5,2.7c0.4,1,0.7,2,0.9,3c0.2,1,0.3,2.1,0.3,3.2
				c0,1.1-0.1,2.2-0.3,3.2c-0.2,1-0.5,2.1-0.9,3S52,40.1,51.4,41"/>
		</g>
		<g id="XMLID_248_" class="st2">
			<line id="XMLID_244_" class="st3" x1="23" y1="44.7" x2="24.8" y2="44.7"/>
			<line id="XMLID_236_" class="st3" x1="27" y1="44.7" x2="28.8" y2="44.7"/>
			<line id="XMLID_245_" class="st3" x1="31" y1="44.7" x2="32.8" y2="44.7"/>
			<line id="XMLID_246_" class="st3" x1="35" y1="44.7" x2="36.8" y2="44.7"/>
			<line id="XMLID_247_" class="st3" x1="39" y1="44.7" x2="40.8" y2="44.7"/>
		</g>
		<g id="XMLID_421_" class="st2">
			<path id="XMLID_747_" class="st3" d="M37.7,32.7h2.7c0.9,0,1.6-0.7,1.6-1.6l0,0c0-0.9-0.7-1.6-1.6-1.6h-2.7"/>
			<path id="XMLID_431_" class="st3" d="M36.6,35.8h2.1c0.9,0,1.6-0.7,1.6-1.6l0,0c0-0.9-0.7-1.6-1.6-1.6h-2.1"/>
			<path id="XMLID_745_" class="st3" d="M36.4,35.8h0.7c0.9,0,1.6,0.7,1.6,1.6l0,0c0,0.9-0.7,1.6-1.6,1.6h-9c-0.4,0-0.8-0.2-1.1-0.5
				l-1.6-1.6c-0.2-0.2-0.6-0.4-0.9-0.4h-0.9"/>
			<path id="XMLID_430_" class="st3" d="M36.6,29.5h3.2c0.9,0,1.6-0.7,1.6-1.6l0,0c0-0.9-0.7-1.6-1.6-1.6h-6h-3.8
				c0,0,1.3-3.3,1.3-4.8c0-0.7,0.2-2.1-0.3-2.8c-0.2-0.3-1.4-0.3-1.6,0c0,0-1.2,3.7-2,4.8c-0.5,0.6-2.2,2.9-2.2,2.9h-1"/>
			<line id="XMLID_256_" class="st3" x1="23.8" y1="23.7" x2="23.8" y2="39"/>
		</g>
	</g>
	<g id="XMLID_263_" class="st0">
		<g id="XMLID_238_" class="st2">
			<path id="XMLID_235_" class="st3" d="M50.6,22.4v21.4c0,0.1-0.1,0.2-0.2,0.2H14c-0.1,0-0.2-0.1-0.2-0.2V22.4"/>
			<path id="XMLID_262_" class="st3" d="M34.9,20.8h-23c-0.1,0-0.2-0.1-0.2-0.2v-6.2c0-0.1,0.1-0.2,0.2-0.2h40.4
				c0.1,0,0.2,0.1,0.2,0.2v6.2c0,0.1-0.1,0.2-0.2,0.2h-9.6"/>
			<line id="XMLID_240_" class="st3" x1="16.1" y1="10.4" x2="16.1" y2="16.6"/>
			<line id="XMLID_237_" class="st3" x1="24.1" y1="10.4" x2="24.1" y2="16.6"/>
			<line id="XMLID_241_" class="st3" x1="32.1" y1="10.4" x2="32.1" y2="16.6"/>
			<line id="XMLID_242_" class="st3" x1="40.1" y1="10.4" x2="40.1" y2="16.6"/>
			<line id="XMLID_249_" class="st3" x1="48.1" y1="10.4" x2="48.1" y2="16.6"/>
			<polyline id="XMLID_250_" class="st3" points="29.9,30.4 31.9,32.4 36.2,28.1 			"/>
			<line id="XMLID_252_" class="st3" x1="22.9" y1="39.4" x2="24.7" y2="39.4"/>
			<line id="XMLID_251_" class="st3" x1="26.9" y1="39.4" x2="28.7" y2="39.4"/>
			<line id="XMLID_253_" class="st3" x1="30.9" y1="39.4" x2="32.7" y2="39.4"/>
			<line id="XMLID_257_" class="st3" x1="34.9" y1="39.4" x2="36.7" y2="39.4"/>
			<line id="XMLID_259_" class="st3" x1="38.9" y1="39.4" x2="40.7" y2="39.4"/>
			<circle id="XMLID_261_" class="st3" cx="32.4" cy="30.5" r="6.5"/>
		</g>
		<g id="XMLID_746_" class="st2">
			<polygon id="XMLID_735_" class="st3" points="47.6,49.6 49.8,51.6 47.6,53.5 15.2,53.5 15.2,49.6 			"/>
			<line id="XMLID_741_" class="st3" x1="11.4" y1="51.6" x2="14.6" y2="51.6"/>
			<line id="XMLID_743_" class="st3" x1="49.2" y1="51.6" x2="52.5" y2="51.6"/>
			<line id="XMLID_742_" class="st3" x1="33.9" y1="53.6" x2="33.9" y2="49.6"/>
			<line id="XMLID_736_" class="st3" x1="44.7" y1="53.6" x2="44.7" y2="49.6"/>
			<polyline id="XMLID_744_" class="st3" points="17.5,49.6 17.5,46.9 28.1,46.9 			"/>
		</g>
	</g>
	<g id="XMLID_274_" class="st0">
		<g id="XMLID_384_" class="st2">
			<path id="XMLID_389_" class="st3" d="M23.7,42.4v-4.3c0-0.4,0.3-0.8,0.7-0.9l5.3-1.8v-3"/>
			<path id="XMLID_387_" class="st3" d="M40.3,42.4v-4.3c0-0.4-0.3-0.8-0.7-0.9l-5.3-1.8v-3"/>
			<path id="XMLID_386_" class="st3" d="M36,25.6c0-2.2-1.8-4-4-4s-4,1.8-4,4l0.4,4.8c0,0.7,0.4,1.2,1,1.5l1.9,1.3h1.3l2-1.3
				c0.6-0.3,1-0.9,1-1.5L36,25.6z"/>
			<polyline id="XMLID_385_" class="st3" points="29.6,35.4 31.1,37.1 32.9,37.1 34.4,35.4 			"/>
		</g>
		<path id="XMLID_277_" class="st4" d="M22,50.4c-0.6-0.3-1.2-0.7-1.7-1c-0.6-0.4-1.1-0.8-1.6-1.2c-0.5-0.4-1-0.9-1.5-1.4
			c-0.5-0.5-0.9-1-1.4-1.5c-0.4-0.5-0.8-1.1-1.2-1.6c-0.4-0.6-0.7-1.1-1-1.7c-0.3-0.6-0.6-1.2-0.9-1.8c-0.3-0.6-0.5-1.3-0.7-1.9
			c-0.2-0.7-0.4-1.3-0.5-2c-0.1-0.7-0.2-1.4-0.3-2.1C11.1,33.4,11,32.7,11,32s0-1.4,0.1-2.1c0.1-0.7,0.2-1.4,0.3-2.1
			c0.1-0.7,0.3-1.4,0.5-2c0.2-0.7,0.4-1.3,0.7-1.9c0.3-0.6,0.6-1.2,0.9-1.8c0.3-0.6,0.7-1.2,1-1.7c0.4-0.6,0.8-1.1,1.2-1.6
			c0.4-0.5,0.9-1,1.4-1.5c0.5-0.5,1-0.9,1.5-1.4c0.5-0.4,1.1-0.8,1.6-1.2c0.6-0.4,1.1-0.7,1.7-1s1.2-0.6,1.8-0.9
			c0.6-0.3,1.3-0.5,1.9-0.7s1.3-0.4,2-0.5c0.7-0.1,1.4-0.2,2.1-0.3c0.7-0.1,1.4-0.1,2.1-0.1s1.4,0,2.1,0.1c0.7,0.1,1.4,0.2,2.1,0.3
			c0.7,0.1,1.4,0.3,2,0.5c0.7,0.2,1.3,0.4,1.9,0.7c0.6,0.3,1.2,0.6,1.8,0.9s1.2,0.7,1.7,1c0.6,0.4,1.1,0.8,1.6,1.2
			c0.5,0.4,1,0.9,1.5,1.4"/>
		<path id="XMLID_271_" class="st4" d="M27.8,52.5c-0.7-0.1-1.4-0.3-2-0.5"/>
		<path id="XMLID_270_" class="st4" d="M34.1,52.8C33.4,52.9,32.7,53,32,53"/>
		<path id="XMLID_269_" class="st4" d="M40.2,51.3c-0.6,0.3-1.3,0.5-1.9,0.7"/>
		<path id="XMLID_268_" class="st4" d="M45.3,48.2c-0.5,0.4-1.1,0.8-1.6,1.2"/>
		<path id="XMLID_266_" class="st4" d="M49.4,43.7c-0.4,0.6-0.8,1.1-1.2,1.6"/>
		<path id="XMLID_258_" class="st4" d="M52,38.2c-0.2,0.7-0.4,1.3-0.7,1.9"/>
		<path id="XMLID_265_" class="st4" d="M53,32c0,0.7,0,1.4-0.1,2.1"/>
		<polyline id="XMLID_254_" class="st4" points="47.6,14.4 47.6,18.1 44.1,18.1 		"/>
		<line id="XMLID_278_" class="st4" x1="19.6" y1="42.4" x2="44.5" y2="42.4"/>
	</g>
	<g id="XMLID_295_" class="st0">
		<path id="XMLID_291_" class="st4" d="M10.9,53.2V16c0-0.1,0.1-0.2,0.2-0.1l9.1,3.9c0.1,0,0.1,0.1,0.1,0.1v33.3"/>
		<line id="XMLID_292_" class="st4" x1="11.2" y1="23.7" x2="20.3" y2="23.7"/>
		<line id="XMLID_293_" class="st4" x1="15" y1="23.7" x2="15" y2="53.2"/>
		<path id="XMLID_286_" class="st4" d="M20.3,29.4h10.8c0.1,0,0.2,0.1,0.2,0.2v23.7"/>
		<line id="XMLID_294_" class="st4" x1="22.2" y1="34.1" x2="27.5" y2="34.1"/>
		<line id="XMLID_296_" class="st4" x1="22.2" y1="38.1" x2="27.5" y2="38.1"/>
		<line id="XMLID_297_" class="st4" x1="22.2" y1="42.2" x2="27.5" y2="42.2"/>
		<line id="XMLID_298_" class="st4" x1="22" y1="46" x2="27.5" y2="46"/>
		<line id="XMLID_299_" class="st4" x1="22" y1="50.1" x2="27.5" y2="50.1"/>
		<path id="XMLID_316_" class="st4" d="M42.1,29.4v-6.7h5.1c0.2,0,0.3-0.2,0.1-0.3L35.7,10.8c-0.1-0.1-0.2-0.1-0.3,0L23.8,22.4
			c-0.1,0.1,0,0.3,0.1,0.3h5.1v4.3"/>
		<path id="XMLID_315_" class="st4" d="M52.1,53.2V40.1h4c0.1,0,0.2-0.2,0.1-0.3l-9-9c-0.1-0.1-0.2-0.1-0.2,0l-2.3,2.3"/>
		<line id="XMLID_314_" class="st6" x1="42.1" y1="53.2" x2="42.1" y2="30.8"/>
		<line id="XMLID_313_" class="st4" x1="7.1" y1="53.2" x2="56.9" y2="53.2"/>
	</g>
	<g id="XMLID_340_" class="st0">
		<g id="XMLID_338_" class="st2">
			<g id="XMLID_332_">
				<path id="XMLID_337_" class="st3" d="M32.9,40h-3.8c-1,0-1.9,0.8-1.9,1.9l0,0c0,1,0.8,1.9,1.9,1.9H31c1,0,1.9,0.8,1.9,1.9l0,0
					c0,1-0.8,1.9-1.9,1.9h-3.9"/>
				<line id="XMLID_336_" class="st3" x1="30.2" y1="38.1" x2="30.2" y2="40"/>
				<line id="XMLID_334_" class="st3" x1="30.2" y1="47.5" x2="30.2" y2="49.3"/>
			</g>
			<circle id="XMLID_329_" class="st3" cx="30" cy="43.7" r="8.9"/>
			<line id="XMLID_328_" class="st3" x1="23.2" y1="43.7" x2="25.3" y2="43.7"/>
			<line id="XMLID_300_" class="st3" x1="34.8" y1="43.7" x2="36.9" y2="43.7"/>
		</g>
		<path id="XMLID_491_" class="st4" d="M52,11.5c4.5,0,3.4,6.6,3.4,6.6h-6.5"/>
		<path id="XMLID_488_" class="st4" d="M14.1,38.5V16c0-2.5,2.1-4.6,4.6-4.6h33.4"/>
		<path id="XMLID_486_" class="st4" d="M52.5,11.5h-1.8c-2.1,0-3.7,1.7-3.7,3.7v23.3"/>
		<line id="XMLID_490_" class="st4" x1="17" y1="19.6" x2="43" y2="19.6"/>
		<line id="XMLID_493_" class="st4" x1="17" y1="25.1" x2="43" y2="25.1"/>
		<line id="XMLID_320_" class="st4" x1="17" y1="30.5" x2="43" y2="30.5"/>
		<g id="XMLID_321_" class="st2">
			<path id="XMLID_339_" class="st3" d="M41.3,40.5h9.4l4.2,3.1c0.2,0.1,0.2,0.3,0,0.4l-4.2,3h-9.4"/>
			<path id="XMLID_327_" class="st3" d="M18.8,46.9h-10c-0.2,0-0.3-0.1-0.3-0.3v-5.9c0-0.2,0.1-0.3,0.3-0.3h10.4"/>
			<line id="XMLID_326_" class="st3" x1="12.8" y1="40.3" x2="12.8" y2="47.1"/>
			<line id="XMLID_325_" class="st3" x1="49.9" y1="40.3" x2="49.9" y2="47.1"/>
		</g>
	</g>
	<g id="XMLID_358_" class="st0">
		<g id="XMLID_343_" class="st2">
			<g id="XMLID_349_">
				<path id="XMLID_356_" class="st3" d="M34.6,25.7h-5c-1.4,0-2.5,1.1-2.5,2.5l0,0c0,1.4,1.1,2.5,2.5,2.5h2.4
					c1.4,0,2.5,1.1,2.5,2.5l0,0c0,1.4-1.1,2.5-2.5,2.5h-5.2"/>
				<line id="XMLID_354_" class="st3" x1="30.8" y1="23.1" x2="30.8" y2="25.7"/>
				<line id="XMLID_351_" class="st3" x1="30.8" y1="35.7" x2="30.8" y2="38.1"/>
			</g>
			<circle id="XMLID_348_" class="st3" cx="30.6" cy="30.6" r="12"/>
			<line id="XMLID_347_" class="st3" x1="21.5" y1="30.6" x2="24.3" y2="30.6"/>
			<line id="XMLID_344_" class="st3" x1="37" y1="30.6" x2="39.8" y2="30.6"/>
		</g>
		
			<rect id="XMLID_346_" x="46.3" y="42.7" transform="matrix(0.7071 -0.7071 0.7071 0.7071 -19.9682 48.2076)" class="st4" width="3.9" height="11"/>
		<line id="XMLID_345_" class="st4" x1="41.7" y1="41.7" x2="43.8" y2="43.8"/>
		<circle id="XMLID_330_" class="st4" cx="30.6" cy="30.6" r="16.3"/>
		<path id="XMLID_342_" class="st6" d="M37.3,49.6c-2.5,0.9-5.1,1.3-7.9,1.1c-2.8-0.2-5.4-0.9-7.7-2.1c-2.3-1.2-4.4-2.8-6.1-4.7
			s-3-4.2-3.9-6.6c-0.9-2.5-1.3-5.1-1.1-7.9c0.2-2.8,0.9-5.4,2.1-7.7c1.2-2.3,2.8-4.4,4.7-6.1c1.9-1.7,4.2-3,6.6-3.9
			c2.5-0.9,5.1-1.3,7.9-1.1c2.8,0.2,5.4,0.9,7.7,2.1c2.3,1.2,4.4,2.8,6.1,4.7s3,4.2,3.9,6.6c0.9,2.5,1.3,5.1,1.1,7.9
			c-0.2,2.8-0.9,5.4-2.1,7.7"/>
	</g>
	<g id="XMLID_376_" class="st0">
		<g id="XMLID_352_" class="st2">
			<path id="XMLID_361_" class="st3" d="M28.4,53.9V43l3-4.1c0.1-0.2,0.3-0.2,0.4,0l2.9,4.1v10.9"/>
			<line id="XMLID_355_" class="st3" x1="28.2" y1="43.8" x2="34.9" y2="43.8"/>
			<line id="XMLID_362_" class="st3" x1="31.6" y1="44.4" x2="31.6" y2="51.8"/>
		</g>
		<path id="XMLID_363_" class="st4" d="M47.9,49.3V20.4L37.6,10.1H16.3c-0.2,0-0.3,0.1-0.3,0.3v38.9"/>
		<path id="XMLID_390_" class="st4" d="M37.6,10.1v10.1c0,0.1,0.1,0.2,0.2,0.2h10.1"/>
		<path id="XMLID_365_" class="st4" d="M30.2,34.4c0.7,0,1.3,0.6,1.3,1.3v1"/>
		<line id="XMLID_366_" class="st4" x1="26.6" y1="34.4" x2="28.2" y2="34.4"/>
		<path id="XMLID_377_" class="st4" d="M33,29.4H22.8c-1.4,0-2.5,1.1-2.5,2.5l0,0c0,1.4,1.1,2.5,2.5,2.5h2.2"/>
		<path id="XMLID_378_" class="st4" d="M29.2,24.4h11.1c1.4,0,2.5,1.1,2.5,2.5l0,0c0,1.4-1.1,2.5-2.5,2.5h-5.4"/>
		<path id="XMLID_360_" class="st4" d="M34.7,19.4H22.8c-1.4,0-2.5,1.1-2.5,2.5l0,0c0,1.4,1.1,2.5,2.5,2.5H26"/>
		<line id="XMLID_367_" class="st4" x1="16.1" y1="50.4" x2="16.1" y2="52.1"/>
		<line id="XMLID_364_" class="st4" x1="20.1" y1="50.4" x2="20.1" y2="52.1"/>
		<line id="XMLID_368_" class="st4" x1="24.1" y1="50.4" x2="24.1" y2="52.1"/>
		<line id="XMLID_371_" class="st4" x1="47.9" y1="50.4" x2="47.9" y2="52.1"/>
		<line id="XMLID_373_" class="st4" x1="43.9" y1="50.4" x2="43.9" y2="52.1"/>
		<line id="XMLID_375_" class="st4" x1="39.9" y1="50.4" x2="39.9" y2="52.1"/>
	</g>
	<g id="XMLID_408_" class="st0">
		<path id="XMLID_393_" class="st4" d="M45.2,24.8H52c1.2,0,2.2,1,2.2,2.2V49c0,1.2-1,2.2-2.2,2.2H12c-1.2,0-2.2-1-2.2-2.2V27.1
			c0-1.2,1-2.2,2.2-2.2h9.4"/>
		<line id="XMLID_392_" class="st4" x1="16.5" y1="51.2" x2="16.5" y2="24.8"/>
		<line id="XMLID_391_" class="st4" x1="13.3" y1="42.3" x2="13.3" y2="33.8"/>
		<line id="XMLID_388_" class="st4" x1="47.5" y1="51.2" x2="47.5" y2="24.8"/>
		<polyline id="XMLID_380_" class="st4" points="16.5,33.5 23.6,26.4 27.8,30.6 38.2,20.2 41.4,23.3 51,13.7 		"/>
		<polyline id="XMLID_369_" class="st4" points="47.9,12.8 52,12.8 52,16.8 		"/>
		<line id="XMLID_381_" class="st4" x1="20.8" y1="29.1" x2="20.8" y2="44.2"/>
		<line id="XMLID_372_" class="st4" x1="24.5" y1="27.1" x2="24.5" y2="44.2"/>
		<line id="XMLID_382_" class="st4" x1="28.3" y1="30.1" x2="28.3" y2="44.2"/>
		<line id="XMLID_383_" class="st4" x1="32" y1="26.1" x2="32" y2="44.2"/>
		<line id="XMLID_394_" class="st4" x1="35.8" y1="22.6" x2="35.8" y2="44.2"/>
		<line id="XMLID_397_" class="st4" x1="39.5" y1="21.1" x2="39.5" y2="44.2"/>
		<line id="XMLID_399_" class="st4" x1="43.3" y1="21.4" x2="43.3" y2="44.2"/>
		<line id="XMLID_402_" class="st4" x1="20.8" y1="45.7" x2="20.8" y2="47.6"/>
		<line id="XMLID_401_" class="st4" x1="24.5" y1="45.7" x2="24.5" y2="47.6"/>
		<line id="XMLID_403_" class="st4" x1="28.3" y1="45.7" x2="28.3" y2="47.6"/>
		<line id="XMLID_404_" class="st4" x1="32" y1="45.7" x2="32" y2="47.6"/>
		<line id="XMLID_405_" class="st4" x1="35.8" y1="45.7" x2="35.8" y2="47.6"/>
		<line id="XMLID_406_" class="st4" x1="39.5" y1="45.7" x2="39.5" y2="47.6"/>
		<line id="XMLID_407_" class="st4" x1="43.3" y1="45.7" x2="43.3" y2="47.6"/>
	</g>
	<g id="XMLID_432_" class="st0">
		<path id="XMLID_410_" class="st4" d="M45.9,43.6H18.1c-0.1,0-0.2-0.1-0.2-0.2V10.8c0-0.1,0.1-0.2,0.2-0.2h27.8
			c0.1,0,0.2,0.1,0.2,0.2v32.6C46.1,43.5,46,43.6,45.9,43.6z"/>
		<polyline id="XMLID_411_" class="st4" points="21.7,19.4 21.7,40 39.9,40 		"/>
		<g id="XMLID_412_" class="st2">
			<path id="XMLID_413_" class="st3" d="M26.9,33.1V24c0-0.1,0.1-0.1,0.1-0.1h4.1c0.1,0,0.1,0.1,0.1,0.1v9.2"/>
			<line id="XMLID_414_" class="st3" x1="26.8" y1="29.3" x2="31.3" y2="29.3"/>
			<path id="XMLID_415_" class="st3" d="M35,32.5v-8.6h2.1c0,0,0.1,0,0.1,0l2.1,2.5c0,0,0,0.1,0,0.1v3.4c0,0,0,0.1,0,0.1l-2.1,2.5
				c0,0-0.1,0-0.1,0H35z"/>
		</g>
		<line id="XMLID_418_" class="st4" x1="27.8" y1="45.7" x2="27.8" y2="52.9"/>
		<line id="XMLID_416_" class="st4" x1="35.8" y1="45.7" x2="35.8" y2="52.9"/>
		<line id="XMLID_420_" class="st4" x1="16.6" y1="53.4" x2="47.5" y2="53.4"/>
		<line id="XMLID_422_" class="st4" x1="14.1" y1="28.5" x2="15.9" y2="28.5"/>
		<line id="XMLID_419_" class="st4" x1="11.1" y1="28.5" x2="12.9" y2="28.5"/>
		<line id="XMLID_425_" class="st4" x1="8.1" y1="28.5" x2="9.9" y2="28.5"/>
		<line id="XMLID_429_" class="st4" x1="54.1" y1="28.5" x2="55.9" y2="28.5"/>
		<line id="XMLID_428_" class="st4" x1="51.1" y1="28.5" x2="52.9" y2="28.5"/>
		<line id="XMLID_426_" class="st4" x1="48.1" y1="28.5" x2="49.9" y2="28.5"/>
	</g>
	<g id="XMLID_469_" class="st0">
		<g id="XMLID_424_" class="st2">
			<g id="XMLID_437_">
				<path id="XMLID_440_" class="st3" d="M35.5,15.8h-4.2c-1.1,0-2.1,0.9-2.1,2.1l0,0c0,1.1,0.9,2.1,2.1,2.1h2
					c1.1,0,2.1,0.9,2.1,2.1l0,0c0,1.1-0.9,2.1-2.1,2.1h-4.3"/>
				<line id="XMLID_439_" class="st3" x1="32.4" y1="13.7" x2="32.4" y2="15.8"/>
				<line id="XMLID_438_" class="st3" x1="32.4" y1="24.1" x2="32.4" y2="26.1"/>
			</g>
			<circle id="XMLID_435_" class="st3" cx="32.2" cy="19.9" r="10"/>
			<line id="XMLID_434_" class="st3" x1="24.6" y1="19.9" x2="27" y2="19.9"/>
			<line id="XMLID_427_" class="st3" x1="37.5" y1="19.9" x2="39.8" y2="19.9"/>
		</g>
		<g id="XMLID_442_" class="st2">
			<path id="XMLID_452_" class="st3" d="M23,54.1v-2.2c0-0.5,0.3-0.9,0.7-1l5.9-2v-3.3"/>
			<path id="XMLID_448_" class="st3" d="M41.4,54.1v-2.2c0-0.5-0.3-0.9-0.7-1l-5.9-2v-3.3"/>
			<path id="XMLID_446_" class="st3" d="M36.7,38.1c0-2.5-2-4.4-4.4-4.4c-2.5,0-4.4,2-4.4,4.4l0.4,5.3c0.1,0.7,0.5,1.4,1.1,1.7
				l2.2,1.4h1.4l2.2-1.4c0.6-0.3,1.1-1,1.1-1.7L36.7,38.1z"/>
			<polyline id="XMLID_443_" class="st3" points="29.6,48.9 31.3,50.8 33.2,50.8 34.9,48.9 			"/>
		</g>
		<g id="XMLID_441_" class="st2">
			<polyline id="XMLID_456_" class="st3" points="38.1,45.4 42.6,43.9 42.6,40.6 			"/>
			<path id="XMLID_455_" class="st3" d="M54.4,49.1v-2.2c0-0.5-0.3-0.9-0.7-1l-5.9-2v-3.3"/>
			<path id="XMLID_454_" class="st3" d="M49.7,33.1c0-2.5-2-4.4-4.4-4.4c-2.5,0-4.4,2-4.4,4.4l0.4,5.3c0.1,0.7,0.5,1.4,1.1,1.7
				l2.2,1.4h1.4l2.2-1.4c0.6-0.3,1.1-1,1.1-1.7L49.7,33.1z"/>
			<polyline id="XMLID_453_" class="st3" points="42.6,43.9 44.3,45.8 46.2,45.8 47.9,43.9 			"/>
		</g>
		<g id="XMLID_459_" class="st2">
			<polyline id="XMLID_463_" class="st3" points="26.4,45.4 21.9,43.9 21.9,40.6 			"/>
			<path id="XMLID_462_" class="st3" d="M10.1,49.1v-2.2c0-0.5,0.3-0.9,0.7-1l5.9-2v-3.3"/>
			<path id="XMLID_461_" class="st3" d="M14.8,33.1c0-2.5,2-4.4,4.4-4.4c2.5,0,4.4,2,4.4,4.4l-0.4,5.3c-0.1,0.7-0.5,1.4-1.1,1.7
				L20,41.6h-1.4l-2.2-1.4c-0.6-0.3-1.1-1-1.1-1.7L14.8,33.1z"/>
			<polyline id="XMLID_460_" class="st3" points="21.9,43.9 20.2,45.8 18.3,45.8 16.6,43.9 			"/>
		</g>
		<line id="XMLID_464_" class="st4" x1="17.4" y1="19.9" x2="19.3" y2="19.9"/>
		<line id="XMLID_457_" class="st4" x1="13.4" y1="19.9" x2="15.3" y2="19.9"/>
		<line id="XMLID_465_" class="st4" x1="9.4" y1="19.9" x2="11.3" y2="19.9"/>
		<line id="XMLID_468_" class="st4" x1="52.7" y1="20" x2="54.6" y2="20"/>
		<line id="XMLID_467_" class="st4" x1="48.7" y1="20" x2="50.6" y2="20"/>
		<line id="XMLID_466_" class="st4" x1="44.7" y1="20" x2="46.6" y2="20"/>
	</g>
	<g id="XMLID_478_" class="st0">
		<g id="XMLID_492_" class="st2">
			<path id="XMLID_496_" class="st3" d="M26.1,42V31.4c0-0.1,0.1-0.1,0.1-0.1h4.8c0.1,0,0.1,0.1,0.1,0.1V42"/>
			<line id="XMLID_495_" class="st3" x1="26" y1="37.6" x2="31.2" y2="37.6"/>
			<path id="XMLID_494_" class="st3" d="M35.5,41.3v-10h2.5c0,0,0.1,0,0.1,0.1l2.5,2.9c0,0,0,0.1,0,0.1v3.9c0,0,0,0.1,0,0.1
				l-2.5,2.9c0,0-0.1,0.1-0.1,0.1H35.5z"/>
		</g>
		<g id="XMLID_474_" class="st2">
			<line id="XMLID_477_" class="st3" x1="35.6" y1="45.2" x2="37.6" y2="45.2"/>
			<line id="XMLID_476_" class="st3" x1="32.1" y1="45.2" x2="34.1" y2="45.2"/>
			<line id="XMLID_475_" class="st3" x1="28.6" y1="45.2" x2="30.6" y2="45.2"/>
		</g>
		<g id="XMLID_471_" class="st2">
			<path id="XMLID_444_" class="st3" d="M28.9,28.6V16.2c0-1.8-1.4-3.2-3.2-3.2l0,0c-1.8,0-3.2,1.4-3.2,3.2V37v-1.6v-2.6
				c0-2.4-1.9-4.3-4.3-4.3h-2v16.7c0,0.9,0.3,1.8,0.9,2.5l3.7,4.4c1.1,1.3,2.8,2.1,4.5,2.1h4.5l0,0c0,0,0,0,0,0c2.2,0,4-1.8,4-4
				v-2.2"/>
			<path id="XMLID_472_" class="st3" d="M28.9,28.6V13.1c0-1.8,1.4-3.2,3.2-3.2l0,0c1.8,0,3.2,1.4,3.2,3.2v15.5"/>
			<path id="XMLID_447_" class="st3" d="M35.2,28.6V16.2c0-1.8,1.4-3.2,3.2-3.2l0,0c1.8,0,3.2,1.4,3.2,3.2v12.4"/>
			<path id="XMLID_473_" class="st3" d="M41.6,28.6v-6.1c0-1.8,1.4-3.2,3.2-3.2l0,0c1.8,0,3.2,1.4,3.2,3.2v22.6
				c0,0.9-0.3,1.8-0.9,2.5L43.4,52c-1.1,1.3-2.8,2.1-4.5,2.1h-4.6"/>
		</g>
	</g>
	<g id="XMLID_500_" class="st0">
		<path id="XMLID_483_" class="st4" d="M53.5,34.6l0-5.5l-4.6-1.2c-0.4-1.9-1.2-3.6-2.1-5.2l2.7-4.5l-3.9-3.9l-4.5,2.7
			c-1.6-1-3.3-1.7-5.2-2.1l-1.3-5h-5.5l-1.3,5c-1.8,0.4-3.6,1.2-5.1,2.1l-4.3-2.6l-3.9,3.9l2.6,4.4c-1,1.6-1.7,3.3-2.1,5.1l-4.6,1.4
			l0,5.5l4.6,1.1c0.4,1.9,1.2,3.6,2.1,5.2l-2.7,4.2l3.9,3.9l4.5-2.4c1.6,1,3.3,1.7,5.2,2.1l1.3,5.3l5.5,0l1.2-5.3
			c1.9-0.4,3.6-1.2,5.2-2.1l4.5,2.7l3.9-3.9L46.8,41c1-1.6,1.7-3.3,2.1-5.2L53.5,34.6z"/>
		<g id="XMLID_612_" class="st2">
			<circle id="XMLID_619_" class="st3" cx="31.9" cy="32" r="12.1"/>
			<path id="XMLID_618_" class="st3" d="M36.2,20.7c1.8,3,2.9,6.9,2.9,11.3c0,4.4-1.1,8.4-3,11.4"/>
			<path id="XMLID_617_" class="st3" d="M28,20.7c-1.8,3-3,6.9-3,11.3c0,4.4,1.1,8.4,3,11.4"/>
			<line id="XMLID_616_" class="st3" x1="31.9" y1="19.9" x2="31.9" y2="44.1"/>
			<line id="XMLID_615_" class="st3" x1="19.8" y1="32" x2="44" y2="32"/>
			<line id="XMLID_614_" class="st3" x1="21.7" y1="26.3" x2="42.6" y2="26.3"/>
			<line id="XMLID_613_" class="st3" x1="21.3" y1="37.7" x2="42.4" y2="37.7"/>
		</g>
		<line id="XMLID_482_" class="st4" x1="30.8" y1="16.2" x2="33.1" y2="16.2"/>
		<line id="XMLID_480_" class="st4" x1="42.3" y1="20" x2="43.9" y2="21.6"/>
		<line id="XMLID_484_" class="st4" x1="47.8" y1="30.8" x2="47.8" y2="33.2"/>
		<line id="XMLID_487_" class="st4" x1="43.9" y1="42.4" x2="42.3" y2="44"/>
		<line id="XMLID_489_" class="st4" x1="33.1" y1="47.8" x2="30.7" y2="47.8"/>
		<line id="XMLID_497_" class="st4" x1="21.5" y1="44" x2="19.9" y2="42.3"/>
		<line id="XMLID_498_" class="st4" x1="16.1" y1="33.1" x2="16.1" y2="30.8"/>
		<line id="XMLID_499_" class="st4" x1="19.9" y1="21.6" x2="21.6" y2="19.9"/>
	</g>
	<g id="XMLID_148_" class="st0">
		<g id="XMLID_530_" class="st2">
			<g id="XMLID_546_">
				<path id="XMLID_549_" class="st3" d="M36.6,24.1h-5.9c-1.6,0-2.9,1.3-2.9,2.9l0,0c0,1.6,1.3,2.9,2.9,2.9h2.8
					c1.6,0,2.9,1.3,2.9,2.9l0,0c0,1.6-1.3,2.9-2.9,2.9h-6.1"/>
				<line id="XMLID_548_" class="st3" x1="32.2" y1="21" x2="32.2" y2="24.1"/>
				<line id="XMLID_547_" class="st3" x1="32.2" y1="35.7" x2="32.2" y2="38.6"/>
			</g>
			<circle id="XMLID_545_" class="st3" cx="32" cy="29.8" r="14"/>
			<line id="XMLID_544_" class="st3" x1="21.3" y1="29.8" x2="24.6" y2="29.8"/>
			<line id="XMLID_543_" class="st3" x1="39.4" y1="29.8" x2="42.7" y2="29.8"/>
		</g>
		<g id="XMLID_147_" class="st2">
			<path id="XMLID_537_" class="st3" d="M48.2,18.7c0.7,1,1.3,2.1,1.8,3.3c1,2.3,1.5,4.9,1.5,7.6c0,2.7-0.5,5.3-1.5,7.6
				c-1,2.3-2.4,4.4-4.2,6.2c-1.8,1.8-3.9,3.2-6.2,4.2c-2.3,1-4.9,1.5-7.6,1.5c-2.7,0-5.3-0.5-7.6-1.5c-2.3-1-4.4-2.4-6.2-4.2
				c-1.8-1.8-3.2-3.9-4.2-6.2c-1-2.3-1.5-4.9-1.5-7.6c0-2.7,0.5-5.3,1.5-7.6c0.6-1.3,1.2-2.5,2.1-3.7"/>
			<path id="XMLID_535_" class="st3" d="M42.8,50.7c0,0-1.1-2.5-3-2.9c-1.9-0.3-3.8,1.6-3.8,1.6s1.1,2.5,3,2.9S42.8,50.7,42.8,50.7z
				"/>
			<path id="XMLID_533_" class="st3" d="M51.9,42.5c0,0-2.2-1.6-4-1c-1.8,0.6-2.5,3.3-2.5,3.3s2.2,1.6,4,1
				C51.2,45.2,51.9,42.5,51.9,42.5z"/>
			<path id="XMLID_531_" class="st3" d="M55.7,30.8c0,0-2.7-0.3-4,1.2c-1.3,1.5-0.5,4.1-0.5,4.1s2.7,0.3,4-1.2
				C56.4,33.5,55.7,30.8,55.7,30.8z"/>
			<path id="XMLID_529_" class="st3" d="M53.1,18.8c0,0-2.5,1.1-2.9,3s1.6,3.8,1.6,3.8s2.5-1.1,2.9-3C55.1,20.8,53.1,18.8,53.1,18.8
				z"/>
			<path id="XMLID_528_" class="st3" d="M46.3,13c0,0-1.6,2.2-1,4c0.6,1.8,3.3,2.5,3.3,2.5s1.6-2.2,1-4C49,13.7,46.3,13,46.3,13z"/>
			<path id="XMLID_526_" class="st3" d="M21.2,50.7c0,0,1.1-2.5,3-2.9c1.9-0.3,3.8,1.6,3.8,1.6s-1.1,2.5-3,2.9
				C23.1,52.7,21.2,50.7,21.2,50.7z"/>
			<path id="XMLID_524_" class="st3" d="M12.1,42.5c0,0,2.2-1.6,4-1c1.8,0.6,2.5,3.3,2.5,3.3s-2.2,1.6-4,1
				C12.8,45.2,12.1,42.5,12.1,42.5z"/>
			<path id="XMLID_519_" class="st3" d="M8.3,30.8c0,0,2.7-0.3,4,1.2c1.3,1.5,0.5,4.1,0.5,4.1s-2.7,0.3-4-1.2
				C7.6,33.5,8.3,30.8,8.3,30.8z"/>
			<path id="XMLID_513_" class="st3" d="M10.9,18.8c0,0,2.5,1.1,2.9,3c0.4,1.9-1.6,3.8-1.6,3.8s-2.5-1.1-2.9-3
				C8.9,20.8,10.9,18.8,10.9,18.8z"/>
			<path id="XMLID_512_" class="st3" d="M18.4,11.7c0,0,1.6,2.2,1,4c-0.6,1.8-3.3,2.5-3.3,2.5s-1.6-2.2-1-4
				C15.8,12.4,18.4,11.7,18.4,11.7z"/>
		</g>
		<g id="XMLID_527_" class="st2">
			<line id="XMLID_536_" class="st3" x1="37.2" y1="11.6" x2="34.8" y2="11.6"/>
			<line id="XMLID_534_" class="st3" x1="33.2" y1="11.6" x2="30.8" y2="11.6"/>
			<line id="XMLID_532_" class="st3" x1="29.2" y1="11.6" x2="26.8" y2="11.6"/>
		</g>
	</g>
	<g id="XMLID_563_" class="st0">
		<g id="XMLID_510_" class="st2">
			<path id="XMLID_562_" class="st7" d="M24.4,17.4c0.5-0.1,1.1-0.2,1.6-0.2c0.5,0,1.1,0.1,1.6,0.2"/>
			<path id="XMLID_561_" class="st7" d="M21.9,14.7c0.6-0.3,1.3-0.5,2-0.6c0.7-0.1,1.4-0.2,2.1-0.2c0.7,0,1.4,0.1,2.1,0.2
				s1.3,0.3,2,0.6"/>
			<path id="XMLID_560_" class="st7" d="M18.6,12.5c0.7-0.5,1.5-0.9,2.2-1.2c0.8-0.3,1.6-0.6,2.5-0.8c0.9-0.2,1.7-0.3,2.7-0.3
				c0.9,0,1.8,0.1,2.7,0.3c0.9,0.2,1.7,0.4,2.5,0.8c0.8,0.3,1.5,0.7,2.2,1.2"/>
		</g>
		<g id="XMLID_514_" class="st2">
			<path id="XMLID_552_" class="st7" d="M24.4,45.3c0.5,0.1,1.1,0.2,1.6,0.2c0.5,0,1.1-0.1,1.6-0.2"/>
			<path id="XMLID_551_" class="st7" d="M21.9,48c0.6,0.3,1.3,0.5,2,0.6c0.7,0.1,1.4,0.2,2.1,0.2c0.7,0,1.4-0.1,2.1-0.2
				c0.7-0.1,1.3-0.3,2-0.6"/>
			<path id="XMLID_521_" class="st7" d="M18.6,50.1c0.7,0.5,1.5,0.9,2.2,1.2c0.8,0.3,1.6,0.6,2.5,0.8c0.9,0.2,1.7,0.3,2.7,0.3
				c0.9,0,1.8-0.1,2.7-0.3c0.9-0.2,1.7-0.4,2.5-0.8c0.8-0.3,1.5-0.7,2.2-1.2"/>
		</g>
		<g id="XMLID_504_" class="st2">
			<path id="XMLID_517_" class="st3" d="M37.1,53.7v-6.8c0-0.1,0.1-0.2,0.2-0.2h16.9c0.1,0,0.2,0.1,0.2,0.2v6.8"/>
			<path id="XMLID_505_" class="st3" d="M41.7,46.7l-3.1-2.6l-6-0.5c-0.2,0-0.4-0.1-0.6-0.1l-4.6-2c0,0-0.3-2,1.9-2.1h11.7
				c0.7,0,1.4-0.5,1.6-1.2c0.5-1.6,1.3-4.4,1.3-4.9c0-0.4-1.8-9.4-1.8-9.4l-3.1-2.6h-4.5c-2.5,0-1.9-3.1-1.9-3.1l6.9-0.6l6.5,5
				l3.9,10.4l2.6,13.9"/>
			<path id="XMLID_542_" class="st3" d="M30.7,29.8l-4.9,2.8c-0.1,0.1-0.2,0-0.2-0.1v-5.7c0-0.1,0.1-0.2,0.2-0.1l4.9,2.8
				C30.8,29.6,30.8,29.8,30.7,29.8l-4.9,2.8c-0.1,0.1-0.2,0-0.2-0.1v-5.7c0-0.1,0.1-0.2,0.2-0.1l4.9,2.8
				C30.8,29.6,30.8,29.8,30.7,29.8z"/>
			<path id="XMLID_540_" class="st3" d="M30.2,21.2h-19c-0.8,0-1.5,0.7-1.5,1.5v15.1c0,0.8,0.7,1.5,1.5,1.5h13.4"/>
			<line id="XMLID_525_" class="st3" x1="15.4" y1="39.5" x2="15.4" y2="21.4"/>
			<line id="XMLID_523_" class="st3" x1="12.1" y1="33.2" x2="12.1" y2="27.4"/>
			<line id="XMLID_508_" class="st5" x1="21.6" y1="29.6" x2="23.6" y2="29.6"/>
			<line id="XMLID_506_" class="st5" x1="18" y1="29.6" x2="20" y2="29.6"/>
			<line id="XMLID_575_" class="st5" x1="36" y1="29.6" x2="38" y2="29.6"/>
			<line id="XMLID_574_" class="st5" x1="32.4" y1="29.6" x2="34.4" y2="29.6"/>
		</g>
	</g>
	<g id="XMLID_556_" class="st0">
		<path id="XMLID_585_" class="st4" d="M20.9,31.4v18.7c0,1.7-1.4,3.1-3.1,3.1l0,0c-1.7,0-3.1-1.4-3.1-3.1V31.4H20.9z"/>
		<path id="XMLID_584_" class="st4" d="M20.9,31.4v18.7c0,1.7-1.4,3.1-3.1,3.1l0,0c-1.7,0-3.1-1.4-3.1-3.1V31.4"/>
		<line id="XMLID_583_" class="st4" x1="12.6" y1="31" x2="22.9" y2="31"/>
		<path id="XMLID_582_" class="st4" d="M35.1,31.3V50c0,1.7-1.4,3.1-3.1,3.1l0,0c-1.7,0-3.1-1.4-3.1-3.1V31.3H35.1z"/>
		<path id="XMLID_581_" class="st4" d="M35.1,31.3V50c0,1.7-1.4,3.1-3.1,3.1l0,0c-1.7,0-3.1-1.4-3.1-3.1V31.3"/>
		<line id="XMLID_579_" class="st4" x1="26.8" y1="30.9" x2="37.2" y2="30.9"/>
		<path id="XMLID_577_" class="st4" d="M49.4,31.2v18.8c0,1.7-1.4,3.1-3.1,3.1l0,0c-1.7,0-3.1-1.4-3.1-3.1V31.2H49.4z"/>
		<path id="XMLID_572_" class="st4" d="M49.4,31.2v18.8c0,1.7-1.4,3.1-3.1,3.1l0,0c-1.7,0-3.1-1.4-3.1-3.1V31.2"/>
		<line id="XMLID_570_" class="st4" x1="41.1" y1="30.8" x2="51.4" y2="30.8"/>
		<line id="XMLID_559_" class="st4" x1="14.6" y1="47.3" x2="20.9" y2="47.3"/>
		<line id="XMLID_558_" class="st4" x1="29.2" y1="43.3" x2="35.5" y2="43.3"/>
		<line id="XMLID_557_" class="st4" x1="43.5" y1="45.6" x2="49.7" y2="45.6"/>
		<path id="XMLID_621_" class="st4" d="M17.6,28.7c0-7.9,6.4-14.4,14.4-14.4c7.9,0,14.4,6.4,14.4,14.4"/>
		<path id="XMLID_564_" class="st6" d="M14.4,27.8c0.3-9.7,8.4-17.3,18.1-17.1c9.7,0.3,17.3,8.4,17.1,18.1"/>
		<path id="XMLID_610_" class="st4" d="M37,15.3c2.2,3.5,3.5,8.2,3.5,13.4"/>
		<path id="XMLID_609_" class="st4" d="M27.3,15.3c-2.2,3.5-3.5,8.2-3.5,13.4"/>
		<line id="XMLID_608_" class="st4" x1="32" y1="28.7" x2="32" y2="14.4"/>
		<line id="XMLID_607_" class="st4" x1="19.8" y1="21.9" x2="44.6" y2="21.9"/>
	</g>
</g>
<g id="Icon_text" class="st0">
	<g id="XMLID_16_" class="st2">
		<text id="XMLID_301_" transform="matrix(1 0 0 1 -164.0798 -77.5002)"><tspan x="0" y="0" class="st8 st9 st10">DIGITAL</tspan><tspan x="-4.4" y="7" class="st8 st9 st10">STRATEGY</tspan></text>
	</g>
	<g id="XMLID_74_" class="st2">
		<text id="XMLID_302_" transform="matrix(1 0 0 1 -77.6707 -77.5003)" class="st8 st9 st10">SOLUTION</text>
	</g>
	<g id="XMLID_100_" class="st2">
		<text id="XMLID_303_" transform="matrix(1 0 0 1 21.425 -77.5005)"><tspan x="0" y="0" class="st8 st9 st10">VIRAL</tspan><tspan x="-11.3" y="7" class="st8 st9 st10">MARKETING</tspan></text>
	</g>
	<g id="XMLID_108_" class="st2">
		<text id="XMLID_304_" transform="matrix(1 0 0 1 100.8284 -77.5005)" class="st8 st9 st10">HOURGLASS</text>
	</g>
	<g id="XMLID_162_" class="st2">
		<text id="XMLID_305_" transform="matrix(1 0 0 1 199.9091 -77.5002)"><tspan x="0" y="0" class="st8 st9 st10">DIGITAL</tspan><tspan x="-7.7" y="7" class="st8 st9 st10">MARKETING</tspan></text>
	</g>
	<g id="XMLID_179_" class="st2">
		<text id="XMLID_306_" transform="matrix(1 0 0 1 -158.4901 17.8333)"><tspan x="0" y="0" class="st8 st9 st10">IDEA</tspan><tspan x="-14.8" y="7" class="st8 st9 st10">DEVELOPING</tspan></text>
	</g>
	<g id="XMLID_210_" class="st2">
		<text id="XMLID_307_" transform="matrix(1 0 0 1 -76.7198 17.8332)"><tspan x="0" y="0" class="st8 st9 st10">PREMIUM</tspan><tspan x="-0.1" y="7" class="st8 st9 st10">CONTENT</tspan></text>
	</g>
	<g id="XMLID_227_" class="st2">
		<text id="XMLID_309_" transform="matrix(1 0 0 1 14.214 17.8331)"><tspan x="0" y="0" class="st8 st9 st10">BUSINESS</tspan><tspan x="1.6" y="7" class="st8 st9 st10">GROWTH</tspan></text>
	</g>
	<g id="XMLID_234_" class="st2">
		<text id="XMLID_311_" transform="matrix(1 0 0 1 109.8205 17.8332)"><tspan x="0" y="0" class="st8 st9 st10">SOCIAL</tspan><tspan x="-9.6" y="7" class="st8 st9 st10">PROMOTION</tspan></text>
	</g>
	<g id="XMLID_264_" class="st2">
		<text id="XMLID_318_" transform="matrix(1 0 0 1 194.9772 17.833)" class="st8 st9 st10">SCHEDULE</text>
	</g>
	<g id="XMLID_284_" class="st2">
		<text id="XMLID_319_" transform="matrix(1 0 0 1 -171.3055 114.5)"><tspan x="0" y="0" class="st8 st9 st10">RETURNING</tspan><tspan x="7.1" y="7" class="st8 st9 st10">VISITOR</tspan></text>
	</g>
	<g id="XMLID_317_" class="st2">
		<text id="XMLID_312_" transform="matrix(1 0 0 1 -77.3219 114.4997)"><tspan x="0" y="0" class="st8 st9 st10">GROWING</tspan><tspan x="-0.5" y="7" class="st8 st9 st10">COMPANY</tspan></text>
	</g>
	<g id="XMLID_341_" class="st2">
		<text id="XMLID_310_" transform="matrix(1 0 0 1 23.4292 114.4997)"><tspan x="0" y="0" class="st8 st9 st10">PAID</tspan><tspan x="-8.7" y="7" class="st8 st9 st10">ARTICLES</tspan></text>
	</g>
	<g id="XMLID_359_" class="st2">
		<text id="XMLID_308_" transform="matrix(1 0 0 1 108.1848 114.4997)"><tspan x="0" y="0" class="st8 st9 st10">SEARCH</tspan><tspan x="-8.8" y="7" class="st8 st9 st10">INVESTMENT</tspan></text>
	</g>
	<g id="XMLID_379_" class="st2">
		<text id="XMLID_449_" transform="matrix(1 0 0 1 187.0199 114.5)" class="st8 st9 st10">STORYTELLING</text>
	</g>
	<g id="XMLID_409_" class="st2">
		<text id="XMLID_450_" transform="matrix(1 0 0 1 -165.1475 209.8336)"><tspan x="0" y="0" class="st8 st9 st10">MARKET</tspan><tspan x="-2.4" y="7" class="st8 st9 st10">ANALYSIS</tspan></text>
	</g>
	<g id="XMLID_433_" class="st2">
		<text id="XMLID_451_" transform="matrix(1 0 0 1 -79.5852 209.8336)" class="st8 st9 st10">BILLBOARD</text>
	</g>
	<g id="XMLID_470_" class="st2">
		<text id="XMLID_481_" transform="matrix(1 0 0 1 0.7912 209.8336)" class="st8 st9 st10">CROWDFUNDING</text>
	</g>
	<g id="XMLID_479_" class="st2">
		<text id="XMLID_485_" transform="matrix(1 0 0 1 117.7882 209.8336)"><tspan x="0" y="0" class="st8 st9 st10">AD</tspan><tspan x="-11.9" y="7" class="st8 st9 st10">BLOCKER</tspan></text>
	</g>
	<g id="XMLID_501_" class="st2">
		<text id="XMLID_503_" transform="matrix(1 0 0 1 199.7346 209.8333)"><tspan x="0" y="0" class="st8 st9 st10">GLOBAL</tspan><tspan x="-4.3" y="7" class="st8 st9 st10">SOLUTION</tspan></text>
	</g>
	<g id="XMLID_146_" class="st2">
		<text id="XMLID_507_" transform="matrix(1 0 0 1 -161.1936 306.4997)"><tspan x="0" y="0" class="st8 st9 st10">VIDEO</tspan><tspan x="-10.6" y="7" class="st8 st9 st10">MARKETING</tspan></text>
	</g>
	<g id="XMLID_502_" class="st2">
		<text id="XMLID_515_" transform="matrix(1 0 0 1 -72.4456 306.4997)"><tspan x="0" y="0" class="st8 st9 st10">MONEY</tspan><tspan x="-6.5" y="7" class="st8 st9 st10">DONATION</tspan></text>
	</g>
	<g id="XMLID_511_" class="st2">
		<text id="XMLID_516_" transform="matrix(1 0 0 1 24.1672 306.4997)"><tspan x="0" y="0" class="st8 st9 st10">LIVE</tspan><tspan x="-13.9" y="7" class="st8 st9 st10">STREAMING</tspan></text>
	</g>
	<g id="XMLID_555_" class="st2">
		<text id="XMLID_518_" transform="matrix(1 0 0 1 106.3466 306.4997)" class="st8 st9 st10">SUCCESS</text>
	</g>
	<g id="XMLID_565_" class="st2">
		<text id="XMLID_520_" transform="matrix(1 0 0 1 191.9789 306.5)"><tspan x="0" y="0" class="st8 st9 st10">MARKETING</tspan><tspan x="2.3" y="7" class="st8 st9 st10">RESEARCH</tspan></text>
	</g>
</g>
<g id="headline" class="st0">
	<circle id="XMLID_61_" class="st11" cx="-133.5" cy="-208.4" r="18.3"/>
	<circle id="XMLID_60_" class="st12" cx="-110.1" cy="-208.4" r="18.3"/>
	<circle id="XMLID_63_" class="st13" cx="-122.7" cy="-190.1" r="18.3"/>
	<g id="XMLID_4_" class="st2">
		<text id="XMLID_539_" transform="matrix(1 0 0 1 -183.7552 -194.0852)"><tspan x="0" y="0" style="fill:#231F20; font-family:'Oswald-Bold'; font-size:22.512px;">FLAT </tspan><tspan x="45.5" y="0" style="fill:#231F20; font-family:'Oswald-Light'; font-size:22.512px;">LINE </tspan><tspan x="83.9" y="0" style="fill:#231F20; font-family:'Oswald-Bold'; font-size:22.512px;">ICONS</tspan></text>
	</g>
	<g id="XMLID_1_" class="st2">
		
			<text id="XMLID_550_" transform="matrix(1 0 0 1 95.8165 -193.9056)" style="fill:#231F20; font-family:'Oswald-Light'; font-size:16.1735px;">MARKETING &amp; BUSINESS</text>
	</g>
</g>
</svg>
