<?xml version="1.0" standalone="no"?>
<!DOCTYPE svg PUBLIC "-//W3C//DTD SVG 20010904//EN"
 "http://www.w3.org/TR/2001/REC-SVG-20010904/DTD/svg10.dtd">
<svg version="1.0" xmlns="http://www.w3.org/2000/svg"
 width="300.000000pt" height="273.000000pt" viewBox="0 0 300.000000 273.000000"
 preserveAspectRatio="xMidYMid meet">

<g transform="translate(0.000000,273.000000) scale(0.100000,-0.100000)"
fill="#000000" stroke="none">
<path d="M1804 2691 c5 -8 -20 -31 -27 -25 -3 3 -10 -10 -15 -28 -24 -74 -83
-300 -80 -303 3 -3 188 314 196 335 1 4 -15 12 -38 18 -22 5 -38 7 -36 3z"/>
<path d="M1952 2563 c-22 -37 -72 -124 -111 -193 l-73 -125 161 160 c174 172
169 162 99 204 l-37 22 -39 -68z"/>
<path d="M2010 2324 l-165 -165 207 118 c114 65 207 121 208 125 0 10 -70 88
-79 88 -3 0 -80 -75 -171 -166z"/>
<path d="M1562 2380 c0 -14 2 -19 5 -12 2 6 2 18 0 25 -3 6 -5 1 -5 -13z"/>
<path d="M2127 2193 c-108 -64 -196 -118 -193 -120 2 -2 64 12 137 32 74 19
173 45 222 57 48 12 87 27 87 33 0 11 -47 115 -52 114 -2 0 -92 -53 -201 -116z"/>
<path d="M2184 2020 c-116 -32 -218 -60 -225 -63 -8 -3 98 -6 234 -6 l248 -1
-6 38 c-13 80 -17 92 -28 91 -7 -1 -107 -27 -223 -59z"/>
<path d="M1941 1836 c6 -6 447 -126 464 -126 13 0 17 12 31 93 l6 37 -253 0
c-139 0 -250 -2 -248 -4z"/>
<path d="M1032 1706 c-18 -6 -30 -15 -26 -18 6 -7 64 18 64 27 0 3 -1 5 -2 4
-2 0 -18 -6 -36 -13z"/>
<path d="M1922 1714 c7 -6 400 -234 404 -234 2 0 17 27 34 60 17 33 28 60 26
60 -3 0 -106 27 -230 60 -230 61 -244 64 -234 54z"/>
<path d="M950 1509 c-102 -60 -184 -114 -182 -119 1 -6 -5 -13 -13 -16 -8 -3
-13 -9 -10 -14 2 -4 -6 -12 -18 -19 -12 -7 -38 -34 -57 -61 -19 -27 -38 -50
-42 -50 -4 0 -17 -20 -28 -44 -11 -24 -25 -46 -30 -48 -7 -2 -10 -23 -8 -51
l3 -47 290 290 c159 159 288 290 285 289 -3 0 -88 -50 -190 -110z m-155 -109
c-3 -5 -12 -10 -18 -10 -7 0 -6 4 3 10 19 12 23 12 15 0z"/>
<path d="M2014 1453 l167 -168 44 49 c25 28 43 51 42 52 -7 8 -408 234 -414
234 -4 0 68 -75 161 -167z"/>
<path d="M1772 1530 c8 -14 43 -74 78 -135 34 -60 80 -140 102 -177 l39 -67
49 30 c28 17 50 34 50 37 0 4 -75 81 -167 172 -91 91 -160 154 -151 140z"/>
<path d="M892 1207 l-332 -332 0 -63 0 -62 108 0 107 0 81 143 c45 78 147 256
227 395 80 138 145 252 144 252 -1 0 -152 -150 -335 -333z"/>
<path d="M1118 1120 c-115 -197 -208 -361 -208 -364 0 -3 51 -6 113 -6 l112 0
54 203 c29 111 73 274 96 362 24 88 43 161 42 162 -1 1 -95 -160 -209 -357z"/>
<path d="M1673 1465 c2 -11 26 -103 52 -203 l48 -184 35 7 c92 17 93 5 -17
192 -132 227 -123 213 -118 188z"/>
<path d="M1552 1254 l-4 -194 56 0 c31 0 56 4 56 10 0 11 -98 371 -102 376 -2
1 -4 -85 -6 -192z"/>
<path d="M1387 1262 c-26 -98 -47 -183 -47 -190 0 -8 18 -12 50 -12 l50 0 0
190 c0 105 -1 190 -3 190 -1 0 -23 -80 -50 -178z"/>
<path d="M2910 314 c0 -60 4 -57 -58 -39 -57 16 -135 -42 -148 -111 -8 -46 19
-117 53 -139 39 -26 98 -31 128 -11 14 9 25 12 25 6 0 -5 20 -10 45 -10 l45 0
0 180 0 180 -45 0 -45 0 0 -56z m-10 -146 c13 -25 13 -31 0 -55 -17 -31 -62
-42 -86 -22 -17 14 -19 80 -2 97 22 22 71 10 88 -20z"/>
<path d="M0 181 l0 -169 46 -4 c25 -2 47 -1 50 1 2 2 4 23 4 47 l0 42 70 4
c63 3 74 7 101 35 62 61 43 166 -36 199 -22 9 -70 14 -135 14 l-100 0 0 -169z
m198 77 c14 -14 15 -47 3 -67 -5 -7 -29 -16 -55 -18 l-46 -6 0 52 0 51 43 0
c24 0 48 -5 55 -12z"/>
<path d="M1480 180 l0 -170 50 0 50 0 0 55 0 55 75 0 75 0 0 40 0 40 -75 0
-75 0 0 35 0 35 85 0 85 0 0 40 0 40 -135 0 -135 0 0 -170z"/>
<path d="M700 295 c0 -28 -4 -35 -20 -35 -16 0 -20 -7 -20 -35 0 -28 4 -35 20
-35 18 0 20 -7 20 -64 0 -54 4 -70 24 -93 21 -24 31 -28 79 -28 31 0 58 3 61
6 3 3 1 20 -5 38 -8 22 -16 30 -26 26 -27 -10 -43 15 -43 66 0 48 1 49 30 49
28 0 30 3 30 35 0 32 -2 35 -30 35 -28 0 -30 3 -30 35 0 35 0 35 -45 35 -45 0
-45 0 -45 -35z"/>
<path d="M445 269 c-61 -19 -95 -65 -95 -127 0 -60 22 -96 73 -121 52 -25 93
-27 147 -5 44 18 50 32 21 58 -17 16 -24 16 -56 5 -31 -11 -40 -11 -62 1 -46
26 -31 35 65 38 l92 3 0 30 c0 85 -96 147 -185 118z m83 -71 c26 -26 13 -38
-38 -38 -52 0 -60 8 -34 34 18 19 55 21 72 4z"/>
<path d="M1048 265 c-21 -7 -38 -9 -38 -4 0 5 -20 9 -45 9 l-45 0 0 -130 0
-130 45 0 45 0 0 73 c0 81 12 102 60 109 20 2 26 9 28 37 5 45 -6 52 -50 36z"/>
<path d="M1224 270 c-119 -37 -132 -200 -21 -251 23 -10 56 -19 72 -19 47 0
112 35 129 69 19 36 21 100 4 136 -24 52 -117 85 -184 65z m90 -86 c18 -18 21
-56 6 -85 -15 -26 -75 -26 -90 0 -15 29 -12 67 6 85 20 20 58 20 78 0z"/>
<path d="M1860 271 c-61 -12 -73 -29 -47 -65 11 -15 19 -16 51 -8 43 12 86 1
86 -23 0 -11 -12 -15 -50 -15 -67 0 -106 -21 -115 -60 -16 -74 87 -130 153
-84 12 8 22 10 22 5 0 -6 20 -11 46 -11 l46 0 -4 99 c-4 102 -14 128 -58 151
-25 13 -93 19 -130 11z m90 -174 c0 -18 -21 -37 -41 -37 -21 0 -43 26 -34 40
9 15 75 13 75 -3z"/>
<path d="M2173 269 c-38 -11 -73 -52 -73 -85 0 -30 31 -61 67 -70 16 -3 40 -9
56 -13 15 -3 26 -10 25 -16 -3 -12 -73 -13 -104 -2 -18 6 -24 2 -34 -23 -7
-17 -10 -33 -8 -36 3 -2 29 -10 59 -16 104 -22 179 13 179 82 0 47 -22 65 -94
79 -52 10 -61 15 -51 30 8 14 55 14 88 2 22 -9 27 -6 37 20 15 35 13 38 -37
50 -46 10 -68 10 -110 -2z"/>
<path d="M2470 273 c-14 -2 -37 -9 -52 -15 -27 -10 -27 -11 -12 -40 14 -26 19
-29 47 -22 42 10 65 8 83 -7 25 -21 15 -27 -52 -31 -55 -3 -70 -8 -85 -27 -29
-35 -24 -75 12 -105 35 -30 76 -33 119 -11 24 12 30 13 30 2 0 -9 12 -11 40
-9 l40 4 0 97 c0 100 -10 130 -48 150 -23 12 -91 20 -122 14z m80 -176 c0 -20
-21 -37 -46 -37 -26 0 -38 14 -30 35 7 19 76 21 76 2z"/>
</g>
</svg>
