<?xml version="1.0" standalone="no"?>
<!DOCTYPE svg PUBLIC "-//W3C//DTD SVG 20010904//EN"
 "http://www.w3.org/TR/2001/REC-SVG-20010904/DTD/svg10.dtd">
<svg version="1.0" xmlns="http://www.w3.org/2000/svg"
 width="300.000000pt" height="273.000000pt" viewBox="0 0 300.000000 273.000000"
 preserveAspectRatio="xMidYMid meet">

<g transform="translate(0.000000,273.000000) scale(0.100000,-0.100000)"
fill="#000000" stroke="none">
<path d="M562 2613 l3 -117 251 -146 c138 -80 271 -156 295 -169 33 -18 -28
48 -241 263 -157 157 -291 286 -298 286 -10 0 -12 -27 -10 -117z"/>
<path d="M750 2722 c0 -4 108 -115 241 -247 133 -132 240 -235 238 -229 -2 6
-65 117 -139 247 l-135 236 -102 1 c-57 0 -103 -3 -103 -8z"/>
<path d="M1107 2682 c16 -27 71 -123 123 -214 52 -92 96 -165 98 -163 2 1 -22
95 -53 209 -30 113 -55 209 -55 211 0 3 -32 5 -70 5 l-70 0 27 -48z"/>
<path d="M1367 2598 c20 -73 44 -162 53 -198 l18 -65 1 198 1 197 -54 0 -54 0
35 -132z"/>
<path d="M1550 2528 c0 -111 3 -199 6 -196 6 7 104 367 104 386 0 8 -18 12
-55 12 l-55 0 0 -202z"/>
<path d="M1722 2514 c-29 -108 -51 -198 -49 -201 2 -2 41 61 85 139 45 79 93
161 107 184 l24 41 -42 12 c-23 7 -49 14 -58 17 -12 3 -25 -34 -67 -192z"/>
<path d="M1872 2432 l-113 -197 166 165 c91 91 165 167 165 171 0 5 -93 60
-101 59 -2 -1 -55 -90 -117 -198z"/>
<path d="M2010 2324 c-146 -147 -159 -163 -114 -138 223 126 364 211 364 219
0 11 -71 85 -81 85 -2 0 -78 -75 -169 -166z"/>
<path d="M560 2286 c0 -47 2 -86 4 -86 2 0 120 -31 262 -69 142 -39 260 -69
261 -67 2 2 -237 141 -469 274 l-58 33 0 -85z"/>
<path d="M2117 2188 c-114 -67 -206 -122 -204 -124 1 -1 107 25 235 59 149 40
232 67 232 75 0 12 -48 113 -53 111 -1 0 -95 -55 -210 -121z"/>
<path d="M560 2019 l0 -69 253 1 252 0 -140 39 c-77 21 -191 51 -252 68 l-113
30 0 -69z"/>
<path d="M2365 2069 c-16 -6 -120 -34 -230 -64 l-200 -54 253 0 253 -1 -6 38
c-17 102 -13 98 -70 81z"/>
<path d="M560 1769 c0 -62 2 -70 18 -65 9 2 120 32 247 66 126 34 232 63 234
66 2 2 -109 4 -247 4 l-252 0 0 -71z"/>
<path d="M1955 1829 c72 -22 440 -119 451 -119 12 0 16 11 29 93 l6 37 -258
-1 c-172 -1 -248 -4 -228 -10z"/>
<path d="M823 1656 l-263 -71 0 -82 c0 -46 2 -83 5 -83 7 0 509 290 520 301 5
5 7 8 5 8 -3 -1 -123 -34 -267 -73z"/>
<path d="M1900 1727 c6 -6 360 -211 402 -233 28 -14 28 -14 55 40 15 31 24 58
21 62 -4 3 -102 32 -220 63 -117 32 -224 62 -238 66 -14 4 -23 5 -20 2z"/>
<path d="M853 1458 l-293 -171 0 -126 0 -126 295 295 c162 162 295 296 295
297 0 4 22 17 -297 -169z"/>
<path d="M2008 1459 l173 -174 40 45 c21 25 38 49 36 54 -3 9 -193 121 -362
215 -58 33 -55 29 113 -140z"/>
<path d="M1784 1510 c14 -25 65 -114 113 -197 49 -84 92 -153 97 -153 14 0 96
50 96 58 0 4 -75 81 -166 172 -131 130 -161 155 -140 120z"/>
<path d="M892 1207 l-332 -332 0 -65 0 -65 107 2 107 2 199 343 c258 446 259
448 255 448 -2 0 -153 -150 -336 -333z"/>
<path d="M1284 1413 c-21 -37 -115 -202 -210 -365 l-172 -298 109 0 c60 0 112
0 117 1 7 0 17 33 131 458 39 146 69 266 67 268 -2 2 -21 -27 -42 -64z"/>
<path d="M1670 1475 c0 -5 23 -97 52 -203 l52 -194 34 7 c91 17 92 5 -17 192
-53 92 -103 177 -109 188 -6 11 -12 16 -12 10z"/>
<path d="M1550 1262 l0 -202 55 0 c30 0 55 4 55 9 0 13 -100 385 -106 390 -2
2 -4 -86 -4 -197z"/>
<path d="M1407 1343 c-14 -60 -37 -147 -51 -195 l-24 -88 54 0 54 0 0 195 c0
107 -1 195 -3 195 -1 0 -15 -48 -30 -107z"/>
<path d="M2910 310 c0 -57 -1 -60 -19 -50 -11 5 -40 10 -65 10 -84 0 -140 -81
-116 -169 20 -74 107 -119 169 -88 17 9 31 11 31 6 0 -5 20 -9 45 -9 l45 0 0
180 0 180 -45 0 -45 0 0 -60z m-18 -127 c24 -21 23 -68 -2 -93 -25 -25 -41
-25 -71 -2 -25 21 -30 71 -9 96 16 21 59 20 82 -1z"/>
<path d="M0 180 l0 -170 50 0 50 0 0 45 0 45 50 0 c67 0 115 21 140 62 24 39
25 66 5 114 -22 53 -76 74 -197 74 l-98 0 0 -170z m197 78 c7 -6 13 -23 13
-39 0 -34 -23 -49 -74 -49 l-36 0 0 56 0 57 42 -7 c23 -4 48 -12 55 -18z"/>
<path d="M1487 343 c-4 -3 -7 -80 -7 -170 l0 -163 50 0 50 0 0 60 0 60 75 0
75 0 0 35 0 35 -75 0 -75 0 0 40 0 40 85 0 85 0 0 35 0 35 -128 0 c-71 0 -132
-3 -135 -7z"/>
<path d="M700 295 c0 -28 -4 -35 -20 -35 -28 0 -29 -60 -1 -67 16 -4 20 -16
23 -75 3 -58 8 -74 27 -89 30 -24 86 -34 116 -21 22 10 23 14 14 41 -7 20 -15
28 -25 24 -26 -10 -44 17 -44 68 0 48 1 49 30 49 28 0 30 3 30 35 0 32 -2 35
-30 35 -28 0 -30 3 -30 35 0 35 0 35 -45 35 -45 0 -45 0 -45 -35z"/>
<path d="M389 231 c-35 -35 -39 -44 -39 -89 0 -43 5 -57 30 -85 51 -58 156
-73 210 -29 l21 17 -23 23 c-22 19 -27 21 -56 10 -27 -11 -37 -10 -59 2 -54
31 -40 40 61 40 l96 0 0 31 c0 73 -57 119 -145 119 -53 0 -60 -3 -96 -39z
m143 -38 c29 -26 21 -33 -37 -33 -38 0 -55 4 -55 13 0 36 59 50 92 20z"/>
<path d="M920 140 l0 -130 45 0 45 0 0 73 c0 82 12 108 53 110 24 2 27 6 27
40 0 31 -3 37 -21 37 -11 0 -30 -5 -42 -11 -16 -9 -22 -9 -25 0 -2 6 -21 11
-43 11 l-39 0 0 -130z"/>
<path d="M1204 261 c-42 -18 -74 -69 -74 -118 0 -58 25 -99 75 -123 52 -25 88
-25 140 0 51 25 75 65 75 124 0 39 -6 52 -34 83 -31 34 -38 37 -97 40 -35 1
-73 -1 -85 -6z m116 -81 c19 -35 8 -83 -21 -99 -24 -13 -29 -13 -53 2 -20 14
-26 26 -26 55 0 47 14 62 57 62 22 0 36 -6 43 -20z"/>
<path d="M1823 260 c-27 -11 -27 -11 -11 -45 7 -16 17 -24 27 -21 68 20 111
13 111 -19 0 -11 -13 -15 -47 -15 -58 0 -94 -17 -111 -52 -16 -35 -2 -72 37
-93 38 -19 64 -19 101 0 17 9 30 11 30 5 0 -5 20 -10 45 -10 l45 0 0 68 c-1
92 -14 143 -45 170 -22 18 -37 22 -93 21 -37 0 -77 -4 -89 -9z m134 -156 c6
-18 -26 -44 -53 -44 -32 0 -43 28 -18 47 22 16 66 14 71 -3z"/>
<path d="M2153 260 c-37 -15 -57 -56 -47 -93 10 -33 40 -49 117 -62 23 -4 37
-11 34 -18 -5 -16 -71 -21 -107 -9 -25 9 -29 7 -40 -16 -15 -33 3 -48 67 -58
86 -13 163 28 163 86 0 40 -29 67 -83 75 -53 8 -72 19 -62 35 5 9 24 11 62 7
51 -5 55 -4 64 20 5 14 7 28 4 32 -11 10 -149 11 -172 1z"/>
<path d="M2423 260 c-26 -10 -29 -28 -10 -53 10 -14 17 -15 49 -5 43 13 88 -1
88 -27 0 -11 -12 -15 -50 -15 -104 0 -151 -58 -100 -123 28 -36 84 -46 124
-23 20 11 32 14 34 7 2 -6 21 -11 43 -11 l39 0 0 90 c0 100 -11 135 -51 156
-31 15 -131 18 -166 4z m127 -158 c0 -25 -19 -42 -47 -42 -31 0 -42 29 -18 46
28 20 65 18 65 -4z"/>
</g>
</svg>
